<svg width="54" height="49" viewBox="0 0 54 49" fill="none" xmlns="http://www.w3.org/2000/svg">
<path d="M39.5428 41.342H8.56177C8.3602 41.342 8.16689 41.2619 8.02436 41.1194C7.88183 40.9768 7.80177 40.7835 7.80177 40.582V9.60097C7.80177 9.50116 7.82143 9.40234 7.85962 9.31013C7.89781 9.21792 7.95379 9.13413 8.02436 9.06356C8.09493 8.99299 8.17872 8.93701 8.27093 8.89882C8.36313 8.86063 8.46196 8.84097 8.56177 8.84097H32.4098C32.8894 8.81481 33.3457 8.62611 33.7038 8.30596L39.9208 2.08897C40.2208 1.78897 40.1148 1.55396 39.6958 1.55396H1.26976C1.0682 1.55396 0.874892 1.63404 0.732365 1.77657C0.589837 1.91909 0.509766 2.1124 0.509766 2.31396V47.88C0.509766 48.0815 0.589837 48.2748 0.732365 48.4174C0.874892 48.5599 1.0682 48.64 1.26976 48.64H46.8358C47.0373 48.64 47.2306 48.5599 47.3732 48.4174C47.5157 48.2748 47.5958 48.0815 47.5958 47.88V19.245C47.5958 18.826 47.3528 18.728 47.0608 19.02L40.8378 25.243C40.5162 25.6001 40.3272 26.057 40.3028 26.537V40.581C40.3029 40.6809 40.2833 40.7798 40.2452 40.8721C40.2071 40.9644 40.1511 41.0483 40.0805 41.119C40.0099 41.1897 39.9261 41.2458 39.8338 41.284C39.7416 41.3223 39.6427 41.342 39.5428 41.342ZM15.2588 19.184L11.1748 23.268C11.1039 23.3385 11.0477 23.4223 11.0093 23.5147C10.9709 23.607 10.9511 23.706 10.9511 23.806C10.9511 23.9059 10.9709 24.0049 11.0093 24.0973C11.0477 24.1896 11.1039 24.2734 11.1748 24.344L22.4748 35.644C22.5453 35.7148 22.6291 35.7711 22.7215 35.8095C22.8138 35.8478 22.9128 35.8676 23.0128 35.8676C23.1127 35.8676 23.2118 35.8478 23.3041 35.8095C23.3964 35.7711 23.4802 35.7148 23.5508 35.644L53.4558 5.73897C53.5266 5.66844 53.5829 5.58461 53.6213 5.49228C53.6596 5.39995 53.6794 5.30095 53.6794 5.20097C53.6794 5.10098 53.6596 5.00198 53.6213 4.90965C53.5829 4.81733 53.5266 4.73349 53.4558 4.66296L49.3718 0.578964C49.3012 0.508092 49.2174 0.451858 49.1251 0.413483C49.0327 0.375108 48.9337 0.355347 48.8338 0.355347C48.7338 0.355347 48.6348 0.375108 48.5425 0.413483C48.4501 0.451858 48.3663 0.508092 48.2958 0.578964L23.5538 25.334C23.4832 25.4048 23.3994 25.4611 23.3071 25.4995C23.2147 25.5378 23.1157 25.5576 23.0158 25.5576C22.9158 25.5576 22.8168 25.5378 22.7245 25.4995C22.6321 25.4611 22.5483 25.4048 22.4778 25.334L16.3338 19.184C16.2633 19.1132 16.1795 19.0571 16.0872 19.0188C15.995 18.9806 15.8961 18.9609 15.7963 18.9609C15.6964 18.9609 15.5975 18.9806 15.5053 19.0188C15.413 19.0571 15.3293 19.1132 15.2588 19.184Z" fill="#318D6A"/>
</svg>
