<svg width="23" height="17" viewBox="0 0 23 17" fill="none" xmlns="http://www.w3.org/2000/svg">
<path d="M22.6499 9.6199C22.0556 8.61484 21.311 7.70667 20.4419 6.92691C19.5976 6.18875 18.6611 5.5632 17.6559 5.0659L16.0259 7.0209L16.0599 7.03391C17.3642 7.6082 18.5215 8.47043 19.4449 9.55591C19.5329 9.66491 19.5849 9.74291 19.4789 9.87991C17.9469 11.6457 15.8482 12.8233 13.5429 13.2109C14.1916 12.8898 14.7388 12.3956 15.1241 11.7828C15.5093 11.1701 15.7176 10.4627 15.7259 9.73891C15.7349 9.10664 15.5765 8.48325 15.2669 7.93192L8.84089 15.6559C10.3859 15.9055 11.9605 15.9099 13.5069 15.6689C15.3688 15.4616 17.1587 14.832 18.7404 13.8281C20.3221 12.8242 21.6538 11.4724 22.6339 9.87592C22.6566 9.83755 22.6699 9.79433 22.6727 9.74983C22.6755 9.70533 22.6676 9.6608 22.6499 9.6199ZM17.0259 0.638916L14.2839 3.9389C13.2892 3.73928 12.2783 3.63084 11.2639 3.61491C10.8569 3.63791 10.3779 3.65592 9.90089 3.69492C9.64689 3.71292 9.40088 3.7519 9.15189 3.7879C7.29289 4.0108 5.50801 4.64969 3.92982 5.65709C2.35163 6.66449 1.0207 8.01452 0.0358878 9.6069C0.0159042 9.64611 0.0050728 9.68934 0.00420675 9.73334C0.0033407 9.77733 0.0124654 9.82096 0.0308906 9.86092C0.745171 11.0816 1.68764 12.1534 2.80689 13.0179C3.6218 13.6328 4.49972 14.1595 5.42589 14.5889L4.33189 15.9029L5.65089 17.0029L18.3439 1.73891L17.0259 0.638916ZM9.78889 7.19391C10.0412 7.19011 10.2863 7.27788 10.4788 7.44098C10.6713 7.60407 10.7982 7.83144 10.8359 8.08092L10.0009 9.08092C9.93497 9.09342 9.86798 9.09944 9.80089 9.09891C9.66847 9.10923 9.53533 9.09278 9.40941 9.05054C9.28349 9.00829 9.16737 8.94111 9.06798 8.85301C8.96858 8.76491 8.88796 8.65769 8.8309 8.53775C8.77385 8.41781 8.74153 8.28761 8.73589 8.15491C8.75188 7.88992 8.87025 7.64154 9.06599 7.46222C9.26174 7.2829 9.51952 7.18668 9.78489 7.19391H9.78889ZM3.85789 10.5839C3.63789 10.3739 3.44589 10.1329 3.23089 9.91791C3.10389 9.78591 3.10889 9.69292 3.22589 9.55292C4.38376 8.20381 5.89141 7.20031 7.58289 6.65291C8.08759 6.48991 8.60066 6.35405 9.11989 6.24591C8.47125 6.57215 7.92508 7.07086 7.54137 7.68726C7.15767 8.30365 6.95129 9.01388 6.94489 9.73991C6.93584 10.5225 7.18347 11.2865 7.64989 11.9149L7.06689 12.6149C5.87367 12.155 4.78237 11.4653 3.85489 10.5849L3.85789 10.5839Z" fill="#8A939B"/>
</svg>
