<svg width="19" height="19" viewBox="0 0 19 19" fill="none" xmlns="http://www.w3.org/2000/svg">
<path d="M17.218 0.122071H1.72798C1.55105 0.121939 1.37583 0.156689 1.21235 0.224335C1.04886 0.291982 0.900322 0.391198 0.775216 0.516304C0.650109 0.641411 0.550893 0.789953 0.483246 0.953438C0.4156 1.11692 0.38085 1.29214 0.380982 1.46907V16.9511C0.38085 17.128 0.4156 17.3032 0.483246 17.4667C0.550893 17.6302 0.650109 17.7787 0.775216 17.9038C0.900322 18.0289 1.04886 18.1282 1.21235 18.1958C1.37583 18.2635 1.55105 18.2982 1.72798 18.2981H17.218C17.3949 18.2982 17.5701 18.2635 17.7336 18.1958C17.8971 18.1282 18.0456 18.0289 18.1707 17.9038C18.2959 17.7787 18.3951 17.6302 18.4627 17.4667C18.5304 17.3032 18.5651 17.128 18.565 16.9511V1.46907C18.5651 1.29214 18.5304 1.11692 18.4627 0.953438C18.3951 0.789953 18.2959 0.641411 18.1707 0.516304C18.0456 0.391198 17.8971 0.291982 17.7336 0.224335C17.5701 0.156689 17.3949 0.121939 17.218 0.122071ZM9.45798 3.47607C9.87022 3.47507 10.282 3.50415 10.69 3.56307L10.528 11.2401C9.82615 11.3648 9.10781 11.3648 8.40598 11.2401L8.24998 3.56307C8.64988 3.50367 9.0537 3.47459 9.45798 3.47607ZM10.624 14.8561C10.2452 14.916 9.86246 14.9474 9.47898 14.9501C9.09112 14.9488 8.70396 14.9174 8.32098 14.8561C8.25727 14.4757 8.22582 14.0907 8.22698 13.7051C8.22602 13.3171 8.25747 12.9298 8.32098 12.5471C8.69762 12.4861 9.07844 12.4547 9.45998 12.4531C9.85046 12.455 10.2402 12.4864 10.626 12.5471C10.6892 12.9254 10.7206 13.3084 10.72 13.6921C10.72 14.082 10.6879 14.4714 10.624 14.8561Z" fill="#258086"/>
</svg>
