<svg width="27" height="28" viewBox="0 0 27 28" fill="none" xmlns="http://www.w3.org/2000/svg">
<path d="M26.037 25.574C26.037 25.9575 25.8847 26.3253 25.6135 26.5965C25.3423 26.8677 24.9745 27.02 24.591 27.02H1.446C1.0625 27.02 0.694701 26.8677 0.423523 26.5965C0.152346 26.3253 0 25.9575 0 25.574V2.43001C0 2.04651 0.152346 1.67871 0.423523 1.40753C0.694701 1.13635 1.0625 0.984009 1.446 0.984009H24.59C24.9735 0.984009 25.3413 1.13635 25.6125 1.40753C25.8837 1.67871 26.036 2.04651 26.036 2.43001L26.037 25.574Z" fill="url(#paint0_linear_2_4063)"/>
<path opacity="0.05" d="M13.7421 24.128V16.172H10.8491V11.833H13.7421V10.288C13.7421 6.64102 15.6701 4.63402 19.1701 4.63402C20.0392 4.62317 20.908 4.67329 21.7701 4.78402L22.3911 4.86402L22.4191 5.48702V8.94102H19.7921C18.9761 8.94102 18.8051 9.94102 18.8051 10.774V11.834H22.2211L21.5491 16.172H18.8051V24.128H13.7421Z" fill="black"/>
<path opacity="0.07" d="M14.103 23.766V15.811H11.21V12.195H14.103V10.287C14.103 6.82399 15.855 4.99399 19.169 4.99399C20.0247 4.98349 20.8801 5.03295 21.729 5.142L22.044 5.18299L22.058 5.503V8.57899H19.792C18.618 8.57899 18.443 9.954 18.443 10.779V12.2H21.799L21.24 15.816H18.44V23.772L14.103 23.766Z" fill="black"/>
<path d="M19.792 8.21199H21.698V5.50199C20.8599 5.39327 20.0151 5.34414 19.17 5.35499C16.204 5.35499 14.47 6.85499 14.47 10.287V12.557H11.572V15.45H14.465V23.406H18.081V15.449H20.929L21.376 12.556H18.076V10.773C18.081 9.41799 18.524 8.21199 19.792 8.21199Z" fill="white"/>
<defs>
<linearGradient id="paint0_linear_2_4063" x1="0.156222" y1="0.176893" x2="26.088" y2="28.0624" gradientUnits="userSpaceOnUse">
<stop stop-color="#0D61A9"/>
<stop offset="1" stop-color="#16528C"/>
</linearGradient>
</defs>
</svg>
