<svg width="47" height="51" viewBox="0 0 47 51" fill="none" xmlns="http://www.w3.org/2000/svg">
<path d="M0.708989 5.76904C0.654989 2.38004 1.87299 0.852037 4.99699 0.869037C17.3143 0.935703 29.6307 0.935703 41.946 0.869037C45.111 0.854037 46.211 2.47804 46.193 5.82004C46.1203 19.2407 46.1203 32.6634 46.193 46.088C46.211 49.461 45.024 50.999 41.887 50.979C29.573 50.9057 17.2593 50.907 4.94599 50.983C1.73099 51.003 0.680989 49.334 0.726989 46.037C0.813989 39.326 0.822989 12.469 0.708989 5.76904Z" fill="#258086"/>
<path d="M19.516 22.426C20.739 25.879 21.639 28.426 22.803 31.726L31.124 15.108C32.997 22.772 34.579 29.242 36.279 36.193H11.459C14.109 31.657 16.537 27.51 19.516 22.426Z" fill="white"/>
</svg>
