<svg width="19" height="19" viewBox="0 0 19 19" fill="none" xmlns="http://www.w3.org/2000/svg">
<path d="M9.5 0C7.62108 0 5.78435 0.557163 4.22209 1.60104C2.65982 2.64491 1.44218 4.12861 0.723148 5.86451C0.00411546 7.60041 -0.184015 9.51054 0.182544 11.3534C0.549104 13.1962 1.45389 14.8889 2.78249 16.2175C4.11109 17.5461 5.80383 18.4509 7.64665 18.8175C9.48947 19.184 11.3996 18.9959 13.1355 18.2769C14.8714 17.5578 16.3551 16.3402 17.399 14.7779C18.4428 13.2156 19 11.3789 19 9.5C19 6.98044 17.9991 4.56408 16.2175 2.78249C14.4359 1.00089 12.0196 0 9.5 0ZM8.086 3.618C8.268 3.59 8.459 3.562 8.655 3.549C8.851 3.536 9.048 3.527 9.211 3.527C9.374 3.527 9.584 3.534 9.795 3.549C10.006 3.564 10.195 3.59 10.373 3.618C10.401 3.8 10.423 3.976 10.436 4.152C10.449 4.328 10.449 4.51 10.449 4.686C10.449 4.862 10.442 5.031 10.436 5.214C10.43 5.397 10.401 5.572 10.373 5.757C10.197 5.785 10.006 5.807 9.804 5.82C9.60201 5.833 9.41101 5.833 9.23301 5.833C9.05501 5.833 8.875 5.826 8.671 5.82C8.467 5.814 8.271 5.785 8.087 5.757C8.02572 5.40331 7.99528 5.04496 7.99601 4.686C7.99409 4.32802 8.0242 3.9706 8.086 3.618ZM11.632 15.474H7.368C7.3058 15.1967 7.27528 14.9132 7.277 14.629C7.277 14.494 7.28401 14.347 7.29901 14.193C7.31307 14.0464 7.3361 13.9008 7.368 13.757H8.41001V8.857H7.368C7.3361 8.71322 7.31307 8.56761 7.29901 8.421C7.28601 8.267 7.277 8.121 7.277 7.985C7.2754 7.7008 7.30592 7.41734 7.368 7.14H10.59V13.754H11.632C11.6639 13.8978 11.6869 14.0434 11.701 14.19C11.714 14.344 11.723 14.49 11.723 14.626C11.725 14.9112 11.6944 15.1957 11.632 15.474Z" fill="#258086"/>
</svg>
