<svg width="27" height="28" viewBox="0 0 27 28" fill="none" xmlns="http://www.w3.org/2000/svg">
<path d="M20.2619 27.021L5.80194 27.034C4.26715 27.034 2.79492 26.4257 1.70778 25.3423C0.620641 24.2589 0.00723599 22.7888 0.00194359 21.254L-0.00805664 6.79401C-0.00806577 5.25921 0.600258 3.78698 1.68365 2.69984C2.76704 1.61271 4.23716 0.999301 5.77194 0.994009L20.2369 0.984009C21.7704 0.986115 23.2405 1.59537 24.3259 2.67853C25.4114 3.76169 26.0237 5.23061 26.0289 6.76401L26.0429 21.229C26.0408 22.7626 25.4314 24.2329 24.3481 25.3184C23.2647 26.4038 21.7955 27.016 20.2619 27.021Z" fill="url(#paint0_radial_2_4068)"/>
<path d="M20.2619 27.021L5.80194 27.034C4.26715 27.034 2.79492 26.4257 1.70778 25.3423C0.620641 24.2589 0.00723599 22.7888 0.00194359 21.254L-0.00805664 6.79401C-0.00806577 5.25921 0.600258 3.78698 1.68365 2.69984C2.76704 1.61271 4.23716 0.999301 5.77194 0.994009L20.2369 0.984009C21.7704 0.986115 23.2405 1.59537 24.3259 2.67853C25.4114 3.76169 26.0237 5.23061 26.0289 6.76401L26.0429 21.229C26.0408 22.7626 25.4314 24.2329 24.3481 25.3184C23.2647 26.4038 21.7955 27.016 20.2619 27.021Z" fill="url(#paint1_radial_2_4068)"/>
<path d="M13.0178 19.072C12.0165 19.072 11.0376 18.775 10.205 18.2187C9.37238 17.6624 8.72344 16.8717 8.34023 15.9465C7.95703 15.0214 7.85676 14.0034 8.05212 13.0212C8.24748 12.0391 8.72968 11.137 9.43775 10.4289C10.1458 9.72083 11.048 9.23863 12.0301 9.04327C13.0122 8.84791 14.0302 8.94818 14.9554 9.33138C15.8805 9.71459 16.6712 10.3635 17.2276 11.1961C17.7839 12.0287 18.0808 13.0076 18.0808 14.009C18.0792 15.3513 17.5453 16.6382 16.5962 17.5873C15.647 18.5365 14.3601 19.0704 13.0178 19.072ZM13.0178 10.393C12.3027 10.393 11.6035 10.6051 11.0089 11.0024C10.4142 11.3997 9.95077 11.9645 9.67709 12.6252C9.4034 13.2859 9.33179 14.013 9.47132 14.7144C9.61084 15.4159 9.95523 16.0602 10.4609 16.5659C10.9666 17.0716 11.611 17.416 12.3124 17.5555C13.0138 17.695 13.7409 17.6234 14.4016 17.3497C15.0624 17.076 15.6271 16.6126 16.0244 16.0179C16.4218 15.4233 16.6338 14.7242 16.6338 14.009C16.6328 13.0503 16.2515 12.1312 15.5736 11.4533C14.8957 10.7754 13.9765 10.394 13.0178 10.393Z" fill="white"/>
<path d="M18.4419 9.67C19.0412 9.67 19.5269 9.18423 19.5269 8.585C19.5269 7.98577 19.0412 7.5 18.4419 7.5C17.8427 7.5 17.3569 7.98577 17.3569 8.585C17.3569 9.18423 17.8427 9.67 18.4419 9.67Z" fill="white"/>
<path d="M17.356 23.407H8.67799C7.33638 23.4054 6.05011 22.872 5.10107 21.9237C4.15203 20.9755 3.61764 19.6896 3.61499 18.348V9.66999C3.61658 8.32769 4.15051 7.04082 5.09966 6.09167C6.04882 5.14251 7.33569 4.60858 8.67799 4.60699H17.357C18.6984 4.6099 19.984 5.14442 20.9321 6.09343C21.8802 7.04244 22.4134 8.32856 22.415 9.66999V18.349C22.4121 19.6897 21.8781 20.9747 20.93 21.9227C19.9818 22.8706 18.6967 23.4044 17.356 23.407ZM8.67799 6.05299C7.71929 6.05405 6.80016 6.43536 6.12226 7.11327C5.44436 7.79117 5.06305 8.7103 5.06199 9.66899V18.348C5.06305 19.3067 5.44436 20.2258 6.12226 20.9037C6.80016 21.5816 7.71929 21.9629 8.67799 21.964H17.357C18.3157 21.9629 19.2348 21.5816 19.9127 20.9037C20.5906 20.2258 20.9719 19.3067 20.973 18.348V9.66999C20.9719 8.7113 20.5906 7.79217 19.9127 7.11427C19.2348 6.43636 18.3157 6.05505 17.357 6.05399L8.67799 6.05299Z" fill="white"/>
<defs>
<radialGradient id="paint0_radial_2_4068" cx="0" cy="0" r="1" gradientUnits="userSpaceOnUse" gradientTransform="translate(9.68291 27.0601) scale(32.4856 32.4844)">
<stop stop-color="#FFDD55"/>
<stop offset="0.328" stop-color="#FF543F"/>
<stop offset="0.348" stop-color="#FC5245"/>
<stop offset="0.504" stop-color="#E64771"/>
<stop offset="0.643" stop-color="#D53E91"/>
<stop offset="0.761" stop-color="#CC39A4"/>
<stop offset="0.841" stop-color="#C837AB"/>
</radialGradient>
<radialGradient id="paint1_radial_2_4068" cx="0" cy="0" r="1" gradientUnits="userSpaceOnUse" gradientTransform="translate(4.18615 -1.22884) scale(21.5702 14.3652)">
<stop stop-color="#4168C9"/>
<stop offset="0.999" stop-color="#4168C9" stop-opacity="0"/>
</radialGradient>
</defs>
</svg>
