<svg width="13" height="25" viewBox="0 0 13 25" fill="none" xmlns="http://www.w3.org/2000/svg">
<path d="M3.58091 22.0332C3.84678 21.7985 4.08932 21.5842 4.32974 21.3678C4.57015 21.1515 4.79784 20.9436 5.02482 20.735C4.56803 20.2499 4.12255 19.7804 3.66859 19.2981L5.1521 17.9674C4.66561 17.4526 4.23427 16.9972 3.78385 16.5213L5.27231 15.1517C5.02058 14.8999 4.78228 14.6517 4.54894 14.4071C4.24417 14.0868 3.93517 13.7679 3.64738 13.4334C3.55938 13.3277 3.50867 13.196 3.50312 13.0586C3.50736 12.4444 3.5267 11.8302 3.56111 11.2159C3.57021 11.1381 3.55589 11.0593 3.52 10.9897C3.4841 10.92 3.42825 10.8626 3.35958 10.8249C2.46769 10.2444 1.76075 9.4206 1.32241 8.45093C0.884066 7.48126 0.732663 6.40632 0.886122 5.3533C1.08366 3.98945 1.76289 2.74136 2.80089 1.83491C3.83889 0.928459 5.16708 0.423521 6.54511 0.411473C7.92313 0.399426 9.25995 0.881066 10.3136 1.76923C11.3673 2.65739 12.0683 3.89341 12.2896 5.25359C12.4782 6.38033 12.3161 7.5378 11.8251 8.56933C11.3341 9.60085 10.538 10.4566 9.54465 11.0208C9.46546 11.0569 9.39886 11.1158 9.35339 11.19C9.30791 11.2642 9.28562 11.3503 9.28938 11.4372C9.18049 15.0854 9.06499 18.7327 8.9429 22.379C8.94381 22.4673 8.9252 22.5548 8.88841 22.6351C8.85161 22.7154 8.79755 22.7866 8.73006 22.8436C8.12831 23.3888 7.53717 23.9488 6.94249 24.501C6.49631 24.9133 6.27427 24.902 5.85567 24.4565C5.10896 23.6645 4.36862 22.8747 3.58091 22.0332ZM6.66107 5.12914C7.06234 5.14333 7.45309 4.9991 7.74892 4.72762C8.04475 4.45613 8.22192 4.07917 8.24215 3.67816C8.24921 3.47715 8.2159 3.27678 8.14421 3.08886C8.07251 2.90095 7.96388 2.72931 7.82473 2.58409C7.68557 2.43888 7.51872 2.32302 7.33404 2.24338C7.14935 2.16374 6.95058 2.12192 6.74946 2.1204C6.34806 2.10686 5.95749 2.25199 5.66235 2.52437C5.36721 2.79675 5.19126 3.17444 5.17261 3.57563C5.1702 3.97741 5.3243 4.36435 5.60228 4.65446C5.88025 4.94458 6.25955 5.11438 6.66107 5.12914Z" fill="#258086"/>
</svg>
