<svg width="54" height="41" viewBox="0 0 54 41" fill="none" xmlns="http://www.w3.org/2000/svg">
<path d="M30.3533 13.6179L31.5515 14.0896L31.5662 14.0749L33.7585 14.9988C39.5477 17.3238 44.5909 22.2144 44.5803 29.9918C44.566 33.7884 43.1312 37.4421 40.5583 40.234H44.6947C47.5347 37.7298 49.8215 34.6611 51.4092 31.2236C52.9968 27.7862 53.8505 24.0555 53.9156 20.2697C53.9807 16.4839 53.2559 12.726 51.7875 9.23602C50.319 5.74599 48.1391 2.60041 45.3869 0L37.7805 7.79749C34.5551 5.6842 31.634 4.59629 28.0337 4.59629C24.5583 4.59629 22.4066 5.83456 22.4066 8.23737C22.4084 10.8035 25.4693 11.7175 30.3533 13.6179Z" fill="#86257C"/>
<path d="M23.5663 13.6179L22.3682 14.0896L22.3534 14.0749L20.1611 14.9988C14.3719 17.3238 9.32873 22.2144 9.33934 29.9918C9.35366 33.7884 10.7884 37.4421 13.3613 40.234H9.2249C6.38488 37.7298 4.0981 34.6611 2.51046 31.2236C0.922813 27.7862 0.0691624 24.0555 0.00402641 20.2697C-0.0611095 16.4839 0.663687 12.726 2.13214 9.23602C3.6006 5.74599 5.78049 2.60041 8.53268 0L16.1391 7.79749C19.3645 5.6842 22.2856 4.59629 25.886 4.59629C29.3613 4.59629 31.513 5.83456 31.513 8.23737C31.5112 10.8035 28.4504 11.7175 23.5663 13.6179Z" fill="#86257C"/>
</svg>
