<svg width="20" height="20" viewBox="0 0 20 20" fill="none" xmlns="http://www.w3.org/2000/svg">
<path d="M9.38512 19.099C9.48973 19.2001 9.62958 19.2567 9.77512 19.2567C9.92066 19.2567 10.0605 19.2001 10.1651 19.099L16.7371 12.714C16.788 12.6649 16.8284 12.6061 16.856 12.5411C16.8836 12.476 16.8979 12.4061 16.8979 12.3355C16.8979 12.2648 16.8836 12.1949 16.856 12.1299C16.8284 12.0648 16.788 12.006 16.7371 11.957L15.4281 10.688C15.3235 10.5868 15.1837 10.5302 15.0381 10.5302C14.8926 10.5302 14.7527 10.5868 14.6481 10.688L11.5381 13.711V5.57396C11.5371 5.50252 11.522 5.43198 11.4937 5.36638C11.4654 5.30077 11.4244 5.24139 11.3731 5.19162C11.3219 5.14184 11.2613 5.10266 11.1949 5.07629C11.1285 5.04993 11.0576 5.0369 10.9861 5.03796H8.78612C8.71468 5.0369 8.64373 5.04993 8.57732 5.07629C8.51092 5.10266 8.45035 5.14184 8.39909 5.19162C8.34783 5.24139 8.30688 5.30077 8.27857 5.36638C8.25027 5.43198 8.23516 5.50252 8.23412 5.57396V13.931L4.89912 10.687C4.7945 10.5858 4.65466 10.5292 4.50912 10.5292C4.36358 10.5292 4.22374 10.5858 4.11912 10.687L2.81212 11.956C2.76128 12.005 2.72085 12.0638 2.69323 12.1289C2.66561 12.1939 2.65137 12.2638 2.65137 12.3345C2.65137 12.4051 2.66561 12.475 2.69323 12.5401C2.72085 12.6051 2.76128 12.6639 2.81212 12.713L9.38512 19.099ZM16.8331 8.27496V3.66196L2.71212 3.66196V8.27496H0.00012207V2.30596C-0.000143051 2.12764 0.0348129 1.95104 0.102989 1.78627C0.171165 1.6215 0.271219 1.47182 0.3974 1.34582C0.523581 1.21983 0.673405 1.12 0.838272 1.05207C1.00314 0.984135 1.1798 0.94943 1.35812 0.949957L18.1891 0.949957C18.3674 0.949694 18.5439 0.984575 18.7087 1.0526C18.8734 1.12063 19.0231 1.22047 19.1493 1.34641C19.2754 1.47235 19.3754 1.62193 19.4437 1.78658C19.512 1.95123 19.5471 2.12772 19.5471 2.30596V8.27496H16.8331Z" fill="#258661"/>
</svg>
