<svg width="20" height="18" viewBox="0 0 20 18" fill="none" xmlns="http://www.w3.org/2000/svg">
<path fill-rule="evenodd" clip-rule="evenodd" d="M10 9C10.6382 8.96227 11.2655 9.17712 11.7466 9.59812C12.2277 10.0191 12.5238 10.6125 12.571 11.25C12.5238 11.8875 12.2277 12.4809 11.7466 12.9019C11.2655 13.3229 10.6382 13.5377 10 13.5C9.36185 13.5377 8.73447 13.3229 8.2534 12.9019C7.77234 12.4809 7.47621 11.8875 7.429 11.25C7.47621 10.6125 7.77234 10.0191 8.2534 9.59812C8.73447 9.17712 9.36185 8.96227 10 9ZM10 2.25C9.36185 2.21227 8.73447 2.42712 8.2534 2.84812C7.77234 3.26912 7.47621 3.86248 7.429 4.5H12.572C12.5248 3.86229 12.2285 3.26878 11.7472 2.84775C11.266 2.42672 10.6383 2.212 10 2.25ZM16.429 18H3.571C2.93285 18.0377 2.30547 17.8229 1.8244 17.4019C1.34334 16.9809 1.04721 16.3875 1 15.75L1 6.75C1.04721 6.11248 1.34334 5.51912 1.8244 5.09812C2.30547 4.67712 2.93285 4.46227 3.571 4.5H4.857C4.857 2.025 7.171 0 10 0C12.829 0 15.143 2.025 15.143 4.5H16.429C17.0672 4.46227 17.6945 4.67712 18.1756 5.09812C18.6567 5.51912 18.9528 6.11248 19 6.75V15.75C18.9528 16.3875 18.6567 16.9809 18.1756 17.4019C17.6945 17.8229 17.0672 18.0377 16.429 18Z" fill="#8A939B"/>
</svg>
