<svg width="27" height="28" viewBox="0 0 27 28" fill="none" xmlns="http://www.w3.org/2000/svg">
<path d="M26.2899 23.404C26.2899 23.8789 26.1964 24.3491 26.0147 24.7878C25.833 25.2265 25.5666 25.6251 25.2308 25.9609C24.8951 26.2967 24.4964 26.563 24.0577 26.7448C23.619 26.9265 23.1488 27.02 22.6739 27.02H3.86893C2.90991 27.02 1.99016 26.639 1.31203 25.9609C0.6339 25.2828 0.25293 24.363 0.25293 23.404V4.60001C0.25293 3.64099 0.6339 2.72124 1.31203 2.04311C1.99016 1.36498 2.90991 0.984009 3.86893 0.984009H22.6689C23.628 0.984009 24.5477 1.36498 25.2258 2.04311C25.904 2.72124 26.2849 3.64099 26.2849 4.60001L26.2899 23.404Z" fill="#0078D4"/>
<path opacity="0.05" d="M17.61 23.4V16.1C17.61 14.878 17.018 14.149 16.025 14.149C15.7327 14.1522 15.4493 14.2499 15.2173 14.4277C14.9852 14.6055 14.8171 14.8536 14.738 15.135C14.7083 15.4026 14.7009 15.6722 14.716 15.941V23.4H9.65495V9.66301H14.718V10.43C15.5177 9.90276 16.4605 9.63492 17.418 9.66301C20.707 9.66301 22.669 11.9 22.669 15.647V23.4H17.61ZM3.86896 23.4V9.66301H6.36896C6.03539 9.67234 5.70347 9.61298 5.39382 9.48861C5.08416 9.36425 4.80339 9.17754 4.56894 8.94008C4.33448 8.70263 4.15136 8.4195 4.03094 8.10829C3.91053 7.79708 3.85539 7.46443 3.86896 7.13101C3.85804 6.79484 3.91637 6.46001 4.04034 6.14733C4.1643 5.83465 4.35125 5.55081 4.58955 5.31344C4.82786 5.07607 5.11244 4.89025 5.4256 4.76752C5.73877 4.64479 6.07382 4.58777 6.40996 4.60001C6.74352 4.5892 7.07575 4.64685 7.38617 4.7694C7.69659 4.89195 7.97861 5.07681 8.21483 5.31256C8.45105 5.54831 8.63646 5.82996 8.75963 6.14014C8.8828 6.45031 8.9411 6.78243 8.93096 7.11601C8.94309 7.45333 8.88567 7.78954 8.76229 8.10371C8.6389 8.41788 8.45217 8.7033 8.21374 8.94221C7.9753 9.18112 7.69025 9.3684 7.37632 9.4924C7.06239 9.61641 6.7263 9.67448 6.38896 9.66301H8.93096V23.4H3.86896Z" fill="black"/>
<path opacity="0.07" d="M17.9718 23.043V16.101C17.9718 14.674 17.2258 13.788 16.0248 13.788C15.661 13.7932 15.3082 13.9133 15.0169 14.1312C14.7256 14.3491 14.5106 14.6536 14.4028 15.001C14.3531 15.3181 14.337 15.6396 14.3548 15.96V23.043H10.0168V10.025H14.3558V11.21C14.7546 10.808 15.2337 10.4946 15.7618 10.2904C16.29 10.0862 16.8553 9.99577 17.4208 10.025C20.4818 10.025 22.3108 12.125 22.3108 15.647V23.047L17.9718 23.043ZM4.23081 23.043V10.025H8.56981V23.043H4.23081ZM6.36981 9.30202C6.08415 9.30981 5.79995 9.25877 5.53485 9.15206C5.26975 9.04536 5.02944 8.88528 4.82883 8.68177C4.62822 8.47825 4.47162 8.23566 4.36874 7.96905C4.26586 7.70245 4.21891 7.41754 4.23081 7.13202C4.22097 6.84355 4.27071 6.55614 4.37692 6.28775C4.48312 6.01936 4.64352 5.77575 4.84808 5.57212C5.05265 5.36849 5.297 5.20921 5.56588 5.10424C5.83476 4.99927 6.12239 4.95086 6.41081 4.96202C6.69689 4.95372 6.98165 5.00397 7.2476 5.10971C7.51355 5.21545 7.75508 5.37443 7.95736 5.5769C8.15964 5.77937 8.3184 6.02105 8.42389 6.28709C8.52939 6.55314 8.57938 6.83795 8.57081 7.12402C8.58089 7.41301 8.53134 7.70098 8.42526 7.96998C8.31918 8.23899 8.15884 8.48326 7.95423 8.68759C7.74962 8.89192 7.50512 9.05193 7.23597 9.15764C6.96682 9.26335 6.67879 9.31249 6.38981 9.30202H6.36981Z" fill="black"/>
<path d="M4.59197 10.386H8.20798V22.686H4.59197V10.386ZM6.39198 8.94004H6.37197C6.13372 8.94719 5.89657 8.90503 5.67538 8.8162C5.45419 8.72737 5.25374 8.59379 5.08661 8.42385C4.91948 8.2539 4.78928 8.05125 4.70416 7.82861C4.61904 7.60597 4.58085 7.36814 4.59197 7.13004C4.58245 6.88925 4.62304 6.64911 4.71117 6.42482C4.79931 6.20054 4.93307 5.99701 5.10399 5.82713C5.2749 5.65726 5.47924 5.52473 5.70405 5.43795C5.92886 5.35118 6.16925 5.31205 6.40997 5.32304C6.64945 5.3137 6.88827 5.3541 7.11135 5.4417C7.33443 5.52929 7.53693 5.66218 7.70607 5.83198C7.87521 6.00177 8.00731 6.20479 8.09404 6.42821C8.18077 6.65163 8.22025 6.8906 8.20998 7.13004C8.21964 7.37095 8.17915 7.61125 8.09109 7.8357C8.00302 8.06015 7.8693 8.26386 7.69839 8.43393C7.52748 8.604 7.3231 8.73671 7.09822 8.82366C6.87333 8.91061 6.63284 8.9509 6.39198 8.94004ZM21.952 22.681H18.333V16.1C18.333 14.51 17.447 13.425 16.024 13.425C15.5877 13.4283 15.1636 13.5692 14.812 13.8276C14.4605 14.0859 14.1994 14.4487 14.066 14.864C13.9869 15.2949 13.9623 15.734 13.993 16.171V22.68H10.378V10.38H13.992V12.272C14.3253 11.6644 14.8244 11.164 15.4311 10.8291C16.0378 10.4941 16.7272 10.3384 17.419 10.38C20.007 10.38 21.947 12.007 21.947 15.641V22.675L21.952 22.681Z" fill="white"/>
</svg>
