<svg width="76" height="58" viewBox="0 0 76 58" fill="none" xmlns="http://www.w3.org/2000/svg">
<path d="M44.0951 30.622C42.1418 25.8947 40.1811 21.1727 38.2131 16.456C38.1345 16.1765 37.9951 15.9179 37.8049 15.6986C37.6148 15.4792 37.3786 15.3045 37.1131 15.187C36.6716 15.0011 36.1824 14.9605 35.7164 15.0713C35.2504 15.182 34.8317 15.4383 34.5211 15.803C26.4124 22.9163 18.3008 30.0197 10.1861 37.113C9.93178 37.3178 9.6538 37.4914 9.3581 37.63C7.01301 38.6839 4.53139 39.403 1.98611 39.766C0.210105 40.114 -0.409895 41.231 0.267105 42.88C1.28511 45.388 2.33411 47.88 3.37511 50.38C4.14244 52.2193 5.3481 52.586 6.99211 51.48C8.84602 50.074 10.8806 48.9237 13.0411 48.06C13.5811 47.878 13.8011 47.855 14.0411 48.46C15.0671 51.06 16.1611 53.62 17.2181 56.204C17.3535 56.7098 17.6636 57.1513 18.0933 57.4504C18.5231 57.7494 19.0448 57.8868 19.5661 57.838C20.0444 57.7237 20.5083 57.556 20.9491 57.338C21.271 57.2538 21.5686 57.0949 21.8176 56.8742C22.0666 56.6535 22.26 56.3772 22.3822 56.0677C22.5044 55.7582 22.5518 55.4242 22.5207 55.0929C22.4896 54.7616 22.3808 54.4423 22.2031 54.161C21.3371 52.094 20.5031 50.012 19.6191 47.952C19.3991 47.435 19.3991 47.268 20.0371 47.23C28.9141 46.652 37.7901 46.044 46.6741 45.459C48.9391 45.307 49.6991 44.144 48.8401 42.07C47.2648 38.2453 45.6831 34.4293 44.0951 30.622ZM9.11011 46.08C8.10211 46.85 7.11011 47.637 6.02011 48.489C5.24511 46.597 4.52011 44.803 3.77811 43.017C3.61111 42.617 3.79311 42.553 4.12011 42.523C5.19911 42.394 6.27811 42.272 7.35811 42.123C7.42251 42.1056 7.48977 42.1016 7.55579 42.1111C7.62181 42.1206 7.6852 42.1434 7.74209 42.1783C7.79899 42.2131 7.84819 42.2591 7.88671 42.3136C7.92522 42.368 7.95224 42.4298 7.9661 42.495C8.3541 43.483 8.77211 44.456 9.18211 45.444C9.28211 45.657 9.39511 45.87 9.11411 46.082L9.11011 46.08ZM54.8101 11.007C53.7257 10.0573 52.5538 9.21257 51.3101 8.484C50.926 8.3224 50.5027 8.27804 50.0934 8.35651C49.6841 8.43498 49.3072 8.63277 49.0101 8.92499C48.2201 9.59399 48.2801 10.247 49.1471 10.825C54.0811 13.9057 57.7924 18.6039 59.6471 24.117C61.0006 28.4366 61.1972 33.0357 60.2171 37.455C59.9971 38.555 60.4681 39.081 61.5851 38.914C62.7551 38.732 63.3791 38.124 63.6601 36.467C65.4041 26.335 62.6301 17.801 54.8101 11.007ZM64.2491 3.74199C62.8879 2.54722 61.4171 1.4835 59.8561 0.564991C59.3736 0.362639 58.8421 0.307366 58.3282 0.406109C57.8144 0.504852 57.3412 0.753207 56.9681 1.11999C55.9681 1.95599 56.0481 2.78399 57.1351 3.50599C63.3441 7.64799 67.9871 13.021 70.3281 20.206C72.0266 25.6362 72.2704 31.4171 71.0351 36.971C70.7611 38.354 71.3541 39.015 72.7601 38.803C74.2341 38.575 75.0101 37.815 75.3741 35.733C77.5561 22.999 74.0681 12.277 64.2491 3.74199ZM47.4461 16.85C46.9815 16.6772 46.474 16.657 45.9971 16.7922C45.5202 16.9274 45.0989 17.2111 44.7941 17.602C44.2471 18.43 44.7941 18.879 45.3411 19.388C47.4602 21.2604 49.1146 23.6003 50.1733 26.2224C51.232 28.8446 51.6661 31.6771 51.4411 34.496C51.3801 35.514 51.9271 35.978 52.9761 35.803C53.4727 35.7645 53.9362 35.5392 54.2732 35.1726C54.6102 34.8059 54.7956 34.325 54.7921 33.827C55.0069 30.9542 54.5963 28.069 53.5886 25.3702C52.5809 22.6713 51.0001 20.223 48.9551 18.194C48.4381 17.67 47.8611 17.214 47.4551 16.849L47.4461 16.85Z" fill="#318D6A"/>
</svg>
