<svg width="18" height="18" viewBox="0 0 18 18" fill="none" xmlns="http://www.w3.org/2000/svg">
<path d="M15.5186 12.0525C15.409 11.9379 15.343 11.7886 15.3319 11.6304C15.3006 10.4884 15.2816 9.34678 15.2747 8.20541C15.3431 6.99731 15.1016 5.79178 14.5731 4.70326C13.9354 3.47418 12.879 2.51378 11.595 1.99568C10.9262 1.76585 10.246 1.57075 9.55713 1.41115C9.55435 1.27832 9.55391 1.07069 9.55125 0.862838C9.54544 0.52123 9.37017 0.31858 9.08227 0.321981C9.01415 0.320635 8.94654 0.333925 8.884 0.360958C8.82146 0.387991 8.76545 0.428135 8.71976 0.478676C8.67407 0.529217 8.63977 0.58898 8.61916 0.653921C8.59855 0.718862 8.59212 0.787471 8.60031 0.855109C8.59263 1.07229 8.59336 1.28623 8.59113 1.51203C7.80273 1.59584 7.03815 1.83221 6.34001 2.20799C5.357 2.70064 4.52984 3.45622 3.95047 4.39075C3.3711 5.32529 3.06222 6.40217 3.05814 7.50171C3.01855 8.96403 3.08551 10.4304 3.11277 11.8939C3.1176 11.9751 3.10428 12.0564 3.07377 12.1318C3.04325 12.2073 2.99631 12.275 2.93637 12.33C2.29086 12.9784 1.65432 13.6362 1.01096 14.2902C0.919624 14.3592 0.85303 14.4559 0.821105 14.5658C0.78918 14.6758 0.793629 14.7931 0.833793 14.9002C0.937588 15.1539 1.15813 15.1871 1.39721 15.1821C3.05299 15.1452 4.70718 15.1154 6.36311 15.0678C6.61132 15.0615 6.7212 15.1189 6.79908 15.3665C6.9272 15.7489 7.14367 16.0957 7.43094 16.3787C7.71822 16.6618 8.06818 16.8731 8.45243 16.9955C8.83669 17.118 9.2444 17.1481 9.64247 17.0834C10.0405 17.0188 10.4178 16.8612 10.7435 16.6234C11.2997 16.2266 11.6821 15.6311 11.8114 14.9602C11.8971 14.9573 11.9758 14.956 12.0535 14.9519C13.7354 14.9133 15.4169 14.8748 17.0982 14.8364C17.2155 14.8539 17.3354 14.8333 17.4402 14.7775C17.5449 14.7216 17.6289 14.6336 17.6797 14.5264C17.7905 14.2568 17.6371 14.0832 17.4582 13.913C16.807 13.305 16.1553 12.6897 15.5186 12.0525ZM9.41337 16.1496C9.0413 16.1896 8.66686 16.0995 8.35379 15.8945C8.04073 15.6895 7.80841 15.3823 7.69639 15.0252L10.7981 14.9518C10.7261 15.2735 10.5527 15.5635 10.3034 15.7792C10.0541 15.9948 9.74207 16.1247 9.41337 16.1496Z" fill="#258086"/>
</svg>
