<svg width="24" height="26" viewBox="0 0 24 26" fill="none" xmlns="http://www.w3.org/2000/svg">
<path d="M11.752 3.11498C11.8183 3.11499 11.8838 3.10182 11.945 3.07626C12.0061 3.0507 12.0615 3.01324 12.108 2.96607C12.1546 2.9189 12.1913 2.86294 12.216 2.80147C12.2407 2.74 12.2529 2.67422 12.252 2.60798V1.09198C12.252 0.959372 12.1993 0.832194 12.1056 0.738426C12.0118 0.644658 11.8846 0.59198 11.752 0.59198C11.6194 0.59198 11.4922 0.644658 11.3984 0.738426C11.3047 0.832194 11.252 0.959372 11.252 1.09198V2.60898C11.2512 2.67515 11.2636 2.74081 11.2883 2.80217C11.3131 2.86352 11.3498 2.91935 11.3963 2.96642C11.4428 3.01349 11.4982 3.05085 11.5593 3.07635C11.6203 3.10185 11.6858 3.11498 11.752 3.11498ZM6.44099 4.18498C6.48504 4.26188 6.54848 4.3259 6.62498 4.37064C6.70149 4.41538 6.78838 4.43929 6.877 4.43998C6.96496 4.43977 7.05115 4.4152 7.126 4.36898C7.24109 4.30113 7.32488 4.19075 7.35931 4.06166C7.39373 3.93257 7.37602 3.79513 7.31 3.67898L6.56 2.36298C6.5275 2.30552 6.48394 2.25506 6.43185 2.21452C6.37975 2.17398 6.32014 2.14416 6.25645 2.12677C6.19277 2.10938 6.12628 2.10478 6.06081 2.11323C5.99534 2.12167 5.93219 2.143 5.875 2.17598C5.76042 2.24432 5.67725 2.35492 5.6434 2.48397C5.60955 2.61301 5.62772 2.75019 5.694 2.86598L6.44099 4.18498ZM3.557 7.10798L2.257 6.34998C2.19981 6.317 2.13666 6.29567 2.07119 6.28723C2.00572 6.27878 1.93923 6.28338 1.87554 6.30077C1.81186 6.31815 1.75225 6.34797 1.70015 6.38852C1.64805 6.42906 1.6045 6.47952 1.572 6.53698C1.50624 6.65318 1.48868 6.79055 1.52308 6.91956C1.55748 7.04857 1.64111 7.15894 1.756 7.22698L3.056 7.98498C3.13084 8.0312 3.21703 8.05578 3.305 8.05598C3.39377 8.05601 3.48094 8.0324 3.55756 7.98758C3.63419 7.94277 3.6975 7.87836 3.741 7.80098C3.80613 7.68414 3.82335 7.54659 3.78902 7.4173C3.7547 7.28802 3.67151 7.17711 3.557 7.10798ZM2 11.975H0.5C0.369561 11.9808 0.246388 12.0367 0.156136 12.131C0.0658834 12.2254 0.0155106 12.3509 0.0155106 12.4815C0.0155106 12.612 0.0658834 12.7376 0.156136 12.8319C0.246388 12.9263 0.369561 12.9822 0.5 12.988H2C2.13044 12.9822 2.25361 12.9263 2.34386 12.8319C2.43412 12.7376 2.48449 12.612 2.48449 12.4815C2.48449 12.3509 2.43412 12.2254 2.34386 12.131C2.25361 12.0367 2.13044 11.9808 2 11.975ZM23.006 11.975H21.506C21.3756 11.9808 21.2524 12.0367 21.1621 12.131C21.0719 12.2254 21.0215 12.3509 21.0215 12.4815C21.0215 12.612 21.0719 12.7376 21.1621 12.8319C21.2524 12.9263 21.3756 12.9822 21.506 12.988H23.006C23.1364 12.9822 23.2596 12.9263 23.3499 12.8319C23.4401 12.7376 23.4905 12.612 23.4905 12.4815C23.4905 12.3509 23.4401 12.2254 23.3499 12.131C23.2596 12.0367 23.1364 11.9808 23.006 11.975ZM21.931 6.53598C21.8985 6.47852 21.8549 6.42806 21.8028 6.38752C21.7508 6.34697 21.6911 6.31716 21.6275 6.29977C21.5638 6.28239 21.4973 6.27778 21.4318 6.28623C21.3663 6.29467 21.3032 6.316 21.246 6.34898L19.946 7.10698C19.85 7.16295 19.775 7.24892 19.7326 7.35167C19.6903 7.45441 19.6828 7.56824 19.7114 7.67562C19.7401 7.78301 19.8032 7.87802 19.8911 7.94602C19.979 8.01402 20.0869 8.05124 20.198 8.05198C20.286 8.05177 20.3722 8.0272 20.447 7.98098L21.747 7.22298C21.8042 7.18998 21.8543 7.14597 21.8945 7.09349C21.9346 7.04101 21.9639 6.9811 21.9807 6.91722C21.9976 6.85334 22.0016 6.78675 21.9925 6.72132C21.9835 6.65588 21.9615 6.59289 21.928 6.53598H21.931ZM16.382 4.36798C16.457 4.41386 16.5431 4.43841 16.631 4.43898C16.719 4.43851 16.8053 4.41535 16.8817 4.37172C16.9581 4.3281 17.0219 4.2655 17.067 4.18998L17.814 2.87398C17.8805 2.75796 17.8986 2.62033 17.8641 2.49109C17.8296 2.36184 17.7455 2.25146 17.63 2.18398C17.5729 2.15147 17.51 2.13052 17.4449 2.12233C17.3797 2.11413 17.3136 2.11885 17.2503 2.13621C17.1869 2.15358 17.1276 2.18325 17.0758 2.22353C17.0239 2.26381 16.9805 2.31391 16.948 2.37098L16.2 3.68498C16.1334 3.79933 16.1148 3.93544 16.1483 4.06347C16.1819 4.1915 16.2648 4.301 16.379 4.36798H16.382ZM11.182 14.568C11.233 14.905 11.417 14.998 11.759 14.998C12.101 14.998 12.285 14.907 12.336 14.568L12.743 11.854C12.773 11.6734 12.7911 11.491 12.797 11.308V9.95698C12.797 9.36598 12.415 9.06598 11.761 9.06598C11.107 9.06598 10.725 9.36598 10.725 9.95698V11.304C10.7296 11.4871 10.7477 11.6695 10.779 11.85L11.182 14.568ZM11.759 15.757C11.5371 15.7492 11.3179 15.8079 11.1296 15.9256C10.9413 16.0433 10.7925 16.2145 10.7022 16.4174C10.6119 16.6203 10.5844 16.8455 10.623 17.0642C10.6616 17.2828 10.7647 17.4849 10.9191 17.6446C11.0734 17.8042 11.2719 17.9141 11.4891 17.9601C11.7064 18.0061 11.9324 17.9862 12.1382 17.9028C12.344 17.8195 12.5202 17.6765 12.6442 17.4923C12.7682 17.3081 12.8343 17.091 12.834 16.869C12.8383 16.5776 12.7267 16.2964 12.5239 16.0871C12.321 15.8779 12.0434 15.7577 11.752 15.753L11.759 15.757ZM9.88699 5.53698C8.39281 5.8781 7.04034 6.67212 6.01427 7.81059C4.98819 8.94906 4.33853 10.3765 4.154 11.898C3.87126 13.3755 4.02373 14.9033 4.59286 16.2958C5.162 17.6883 6.12332 18.8855 7.36 19.742C7.81576 20.0363 8.18042 20.4518 8.41299 20.942C8.47167 21.2117 8.58361 21.467 8.74223 21.6929C8.90085 21.9188 9.10296 22.1108 9.33673 22.2576C9.5705 22.4043 9.83122 22.503 10.1036 22.5477C10.376 22.5924 10.6546 22.5823 10.923 22.518C11.2103 22.5004 11.4984 22.4984 11.786 22.512H12.963C14.18 22.512 14.477 22.28 14.995 21.193C15.2018 20.6913 15.5246 20.2457 15.937 19.893C17.1168 19.1038 18.065 18.0146 18.6842 16.7373C19.3034 15.4601 19.5712 14.041 19.46 12.626C19.4003 11.4892 19.09 10.3798 18.5513 9.37699C18.0126 8.3742 17.2589 7.50291 16.3441 6.82549C15.4293 6.14807 14.3761 5.68127 13.2598 5.45852C12.1435 5.23576 10.9917 5.26255 9.88699 5.53698ZM15.233 18.52C14.6801 18.946 14.2045 19.4639 13.827 20.051C13.5857 20.3539 13.2811 20.6004 12.9345 20.7733C12.5879 20.9461 12.2077 21.0411 11.8206 21.0516C11.4334 21.0621 11.0487 20.9878 10.6933 20.834C10.3378 20.6801 10.0203 20.4504 9.763 20.161C9.2892 19.4847 8.72226 18.8787 8.07899 18.361C7.001 17.517 6.21462 16.3564 5.83041 15.0423C5.44619 13.7282 5.48347 12.3268 5.937 11.035C6.37007 9.76324 7.20363 8.66611 8.31275 7.90801C9.42187 7.14991 10.7468 6.77166 12.089 6.82998C13.4026 6.94974 14.6479 7.46924 15.6572 8.31847C16.6664 9.1677 17.3912 10.3059 17.7337 11.5796C18.0763 12.8534 18.0203 14.2015 17.5731 15.4425C17.126 16.6834 16.3093 17.7575 15.233 18.52ZM13.413 23.5C12.87 23.463 12.324 23.489 11.777 23.489C11.23 23.489 10.685 23.464 10.141 23.5C10.0314 23.502 9.92336 23.5269 9.82397 23.5733C9.72458 23.6196 9.63601 23.6863 9.564 23.769C9.54315 23.8747 9.54521 23.9837 9.57005 24.0886C9.59489 24.1935 9.64194 24.2918 9.708 24.377C9.96039 24.6809 10.2765 24.9256 10.634 25.0937C10.9915 25.2618 11.3815 25.3492 11.7766 25.3498C12.1716 25.3504 12.562 25.2641 12.9199 25.097C13.2779 24.9299 13.5947 24.6861 13.848 24.383C13.9149 24.2977 13.9627 24.1989 13.9881 24.0935C14.0135 23.9881 14.0158 23.8784 13.995 23.772C13.922 23.6891 13.8325 23.6222 13.7324 23.5755C13.6322 23.5289 13.5235 23.5025 13.413 23.5Z" fill="#CDD0E2"/>
</svg>
