<svg width="20" height="17" viewBox="0 0 20 17" fill="none" xmlns="http://www.w3.org/2000/svg">
<path d="M12.847 0.745929C14.7137 0.802596 16.5804 0.858603 18.447 0.913936C19.023 0.930936 19.264 1.20593 19.204 1.79593C19.123 2.60593 19.044 3.41793 18.95 4.22593C18.777 5.71193 18.566 7.19293 18.283 8.65993C17.9856 10.3967 17.5222 12.1008 16.899 13.7489C16.6538 14.3835 16.3361 14.9875 15.952 15.5489C15.7019 15.9451 15.3493 16.2664 14.9316 16.4786C14.5138 16.6909 14.0465 16.7864 13.579 16.7549C11.379 16.6889 9.17902 16.6949 6.97902 16.6629C6.06502 16.6519 5.15202 16.6249 4.23802 16.5989C3.71618 16.5819 3.20512 16.4459 2.7438 16.2014C2.28248 15.9568 1.88308 15.6102 1.57602 15.1879C1.00792 14.4605 0.608009 13.6163 0.40502 12.7159C0.372373 12.6166 0.364873 12.5108 0.383191 12.4078C0.401509 12.3049 0.445073 12.2081 0.509981 12.1262C0.574889 12.0442 0.659113 11.9797 0.755108 11.9383C0.851102 11.8968 0.955868 11.8799 1.06002 11.8889C2.65402 11.9229 4.24902 11.9659 5.84202 12.0019C7.50135 12.0393 9.15969 12.0749 10.817 12.1089C10.881 12.1089 10.943 12.1199 11.005 12.1169C11.1782 12.1012 11.3516 12.1447 11.4969 12.2402C11.6422 12.3358 11.7508 12.4777 11.805 12.6429C12.0737 13.2313 12.3961 13.7937 12.768 14.3229C12.9864 14.6505 13.2515 14.9443 13.555 15.1949C13.6259 15.2723 13.7128 15.3332 13.8097 15.3734C13.9066 15.4137 14.0111 15.4322 14.116 15.4277C14.2208 15.4232 14.3234 15.3959 14.4165 15.3475C14.5096 15.2992 14.591 15.2311 14.655 15.1479C15.0561 14.7145 15.365 14.2042 15.563 13.6479C16.1125 12.2565 16.5313 10.817 16.814 9.34793C17.132 7.86593 17.37 6.36793 17.569 4.86493C17.678 4.03593 17.748 3.20393 17.846 2.37493C17.865 2.21893 17.82 2.18293 17.673 2.18093C16.4504 2.15093 15.2287 2.1176 14.008 2.08094C11.9774 2.02227 9.94735 1.9606 7.91802 1.89593C7.75202 1.88993 7.70702 1.93693 7.69202 2.10093C7.48827 4.60615 7.03639 7.08497 6.34302 9.50093C6.20702 9.95093 6.03202 10.3879 5.87602 10.8329C5.86851 10.8703 5.84733 10.9035 5.81663 10.9261C5.78593 10.9486 5.74791 10.9589 5.71002 10.9549C5.33102 10.9439 4.95102 10.9399 4.57202 10.9399C4.42502 10.9399 4.43302 10.8829 4.48202 10.7759C5.21911 9.00524 5.72332 7.14638 5.98202 5.24593C6.21002 3.90893 6.35702 2.56193 6.47602 1.21093C6.47554 1.12219 6.49393 1.03437 6.52997 0.953281C6.56602 0.872191 6.61889 0.799691 6.68509 0.740588C6.75128 0.681486 6.82928 0.637132 6.91392 0.610469C6.99856 0.583806 7.0879 0.575442 7.17602 0.585933L11.601 0.709934C12.015 0.720934 12.432 0.709934 12.844 0.709934C12.845 0.721246 12.845 0.732617 12.844 0.74393L12.847 0.745929ZM11.967 15.4289C11.5113 14.8257 11.1144 14.18 10.782 13.5009C10.7656 13.4667 10.7388 13.4386 10.7053 13.4206C10.6719 13.4026 10.6336 13.3957 10.596 13.4009C10.406 13.4009 10.217 13.4009 10.027 13.3949C8.43169 13.3556 6.83702 13.3166 5.24302 13.2779C4.25202 13.2539 3.26102 13.2369 2.27302 13.2119C1.90402 13.2029 1.89802 13.1989 2.06402 13.5269C2.25593 14.0551 2.60461 14.512 3.06337 14.8366C3.52213 15.1611 4.06909 15.3378 4.63102 15.3429C6.85202 15.3429 9.07102 15.4009 11.291 15.4329C11.5 15.4329 11.707 15.4289 11.967 15.4289ZM12.415 5.12893L9.67602 5.03293C9.59169 5.03068 9.50756 5.02368 9.42402 5.01194C9.32845 5.00329 9.24016 4.95725 9.17836 4.88384C9.11656 4.81043 9.08625 4.71558 9.09402 4.61993C9.09558 4.5273 9.13193 4.43864 9.19585 4.37158C9.25976 4.30451 9.34657 4.26394 9.43902 4.25793C9.52289 4.25136 9.60715 4.25136 9.69102 4.25793C11.5504 4.3246 13.4107 4.39127 15.272 4.45793C15.545 4.46693 15.698 4.61794 15.688 4.85794C15.6874 4.91112 15.6754 4.96355 15.6526 5.01164C15.6299 5.05972 15.597 5.10232 15.5562 5.13651C15.5155 5.1707 15.4678 5.19568 15.4165 5.20974C15.3652 5.22379 15.3115 5.22658 15.259 5.21793C14.312 5.19193 13.364 5.15993 12.415 5.12893ZM13.782 7.83593C12.226 7.78127 10.669 7.72593 9.11102 7.66993C8.85102 7.66193 8.69102 7.54894 8.66102 7.34594C8.64564 7.26189 8.65998 7.17512 8.70158 7.10049C8.74318 7.02586 8.80945 6.96804 8.88902 6.93693C8.97383 6.90362 9.06593 6.89327 9.15602 6.90693L11.514 6.98793C12.482 7.02193 13.4487 7.05527 14.414 7.08793C14.4772 7.08343 14.5406 7.09145 14.6007 7.11153C14.6607 7.13161 14.7163 7.16335 14.764 7.20493C14.8184 7.25615 14.856 7.32264 14.8719 7.39564C14.8878 7.46864 14.8812 7.54474 14.853 7.61393C14.8258 7.69131 14.774 7.75768 14.7056 7.80298C14.6372 7.84828 14.5559 7.87003 14.474 7.86493C14.246 7.86093 13.783 7.83994 13.783 7.83194L13.782 7.83593ZM11.166 10.4559C10.194 10.4013 9.22269 10.3459 8.25202 10.2899C8.09002 10.2809 7.99002 10.1689 7.97102 9.96593C7.95694 9.89108 7.96253 9.81386 7.98725 9.74182C8.01196 9.66977 8.05496 9.60538 8.11202 9.55493C8.13676 9.53934 8.16435 9.52882 8.1932 9.52401C8.22205 9.51921 8.25156 9.5202 8.28002 9.52693L9.74902 9.60794L11.561 9.70793C11.6046 9.70547 11.648 9.71508 11.6865 9.73573C11.725 9.75637 11.757 9.78724 11.779 9.82493C11.8507 9.94864 11.8704 10.0957 11.834 10.2339C11.796 10.4039 11.708 10.4809 11.599 10.4849C11.4541 10.4846 11.3093 10.4736 11.166 10.4519V10.4559Z" fill="#258086"/>
</svg>
