<svg width="26" height="23" viewBox="0 0 26 23" fill="none" xmlns="http://www.w3.org/2000/svg">
<path d="M15.4001 18.9C15.3759 18.1091 15.0988 17.3467 14.6094 16.7249C14.12 16.103 13.4442 15.6544 12.6811 15.445C12.6081 15.425 12.5371 15.407 12.4641 15.389C11.8251 15.7908 11.0852 16.003 10.3304 16.0009C9.57552 15.9988 8.8368 15.7824 8.20009 15.377C7.4064 15.5605 6.69442 15.9984 6.17253 16.6239C5.65065 17.2494 5.34745 18.0283 5.30909 18.842C5.28909 19.692 5.27109 20.542 5.26909 21.389C5.26909 22.181 5.21109 22.203 5.61509 22.31C5.61509 22.31 10.8151 23.524 15.0711 22.323C15.1769 22.2969 15.2699 22.234 15.3333 22.1454C15.3967 22.0568 15.4265 21.9485 15.4171 21.84C15.3991 20.861 15.4351 19.88 15.3971 18.904L15.4001 18.9ZM6.47009 15.423C6.80813 15.198 7.16634 15.0048 7.54009 14.846C6.82253 14.1428 6.39834 13.1937 6.35309 12.19C6.32878 12.1887 6.30441 12.1887 6.28009 12.19C5.50609 12.19 4.73009 12.172 3.95609 12.198C3.10855 12.1995 2.28294 12.4674 1.59609 12.964C1.29609 13.204 0.0410938 14.395 -0.00390625 17.564V19.124C1.29455 19.5334 2.62779 19.8229 3.97909 19.989C4.42409 20.045 4.59409 19.959 4.57909 19.463C4.52372 18.6858 4.66771 17.9074 4.99741 17.2014C5.32711 16.4955 5.8316 15.8854 6.46309 15.429L6.47009 15.423ZM18.4601 12.745C17.1681 11.956 15.7291 12.221 14.3331 12.201C14.285 13.2015 13.8615 14.147 13.1471 14.849C13.7793 15.0936 14.3531 15.4684 14.8311 15.949C15.2867 16.4221 15.6354 16.9876 15.8537 17.6071C16.0719 18.2266 16.1546 18.8858 16.0961 19.54C16.0731 19.884 16.1541 20.04 16.5461 20.008C17.7043 19.9293 18.845 19.6823 19.9321 19.275C20.057 19.2469 20.1671 19.1735 20.241 19.069C20.3149 18.9644 20.3473 18.8361 20.3321 18.709C20.3041 17.715 20.3401 16.716 20.2921 15.722C20.2691 15.1102 20.0888 14.5147 19.7686 13.9929C19.4484 13.4711 18.9991 13.0406 18.4641 12.743L18.4601 12.745ZM10.3671 15.077C11.1492 15.0647 11.8952 14.7459 12.4447 14.1891C12.9941 13.6324 13.3031 12.8822 13.3051 12.1C13.3091 11.7125 13.2363 11.328 13.091 10.9687C12.9456 10.6094 12.7306 10.2824 12.4584 10.0066C12.1861 9.73084 11.8619 9.51165 11.5045 9.36171C11.1472 9.21176 10.7636 9.13404 10.3761 9.133C9.98407 9.12864 9.59503 9.20163 9.23125 9.34779C8.86746 9.49395 8.53607 9.71041 8.25603 9.98479C7.97599 10.2592 7.7528 10.5861 7.59924 10.9468C7.44568 11.3075 7.36475 11.695 7.36109 12.087C7.3687 12.88 7.6879 13.6382 8.24977 14.1978C8.81164 14.7574 9.57109 15.0736 10.3641 15.078L10.3671 15.077ZM5.22009 12.013C5.33971 12.0089 5.45895 11.9972 5.57709 11.978C5.84826 11.9344 6.11146 11.8508 6.35809 11.73C6.39973 11.1278 6.57752 10.543 6.87806 10.0195C7.1786 9.496 7.59405 9.04757 8.09309 8.708C8.08618 8.63068 8.07449 8.55387 8.05809 8.478C7.915 7.74678 7.503 7.09577 6.90341 6.65345C6.30383 6.21113 5.56021 6.00964 4.81933 6.08875C4.07846 6.16786 3.39416 6.52182 2.90148 7.08077C2.40881 7.63972 2.14356 8.36306 2.15809 9.108C2.1908 9.89522 2.52876 10.6388 3.10035 11.1811C3.67195 11.7233 4.43224 12.0217 5.22009 12.013ZM23.6951 9.975C23.0091 9.47639 22.1831 9.20725 21.3351 9.206C20.5611 9.181 19.7851 9.201 19.0111 9.198C18.9868 9.19671 18.9624 9.19671 18.9381 9.198C18.8941 10.2019 18.471 11.1518 17.7541 11.856C18.1269 12.0168 18.4849 12.2099 18.8241 12.433C19.4556 12.8894 19.9601 13.4995 20.2898 14.2054C20.6195 14.9114 20.7635 15.6898 20.7081 16.467C20.6931 16.967 20.8621 17.051 21.3081 16.993C22.6596 16.8282 23.993 16.5386 25.2911 16.128V14.572C25.2501 11.406 23.9931 10.212 23.6951 9.975ZM18.9321 8.74C19.1783 8.86192 19.4417 8.94555 19.7131 8.988C19.8311 9.00848 19.9504 9.02018 20.0701 9.023C20.6389 9.03985 21.2006 8.89344 21.6888 8.60108C22.177 8.30873 22.5713 7.88266 22.8249 7.37328C23.0786 6.8639 23.1811 6.29253 23.1202 5.72675C23.0594 5.16096 22.8377 4.62444 22.4816 4.18066C22.1254 3.73687 21.6495 3.40438 21.1103 3.22253C20.5711 3.04067 19.9911 3.01705 19.4389 3.15447C18.8867 3.29189 18.3854 3.58459 17.9943 3.99795C17.6033 4.41131 17.3387 4.92804 17.2321 5.487C17.2159 5.56291 17.2042 5.63971 17.1971 5.717C17.6959 6.05679 18.1112 6.50526 18.4117 7.0287C18.7123 7.55213 18.8902 8.13689 18.9321 8.739V8.74ZM12.3471 8.4C12.3353 8.44396 12.327 8.48876 12.3221 8.534C12.911 8.87083 13.4045 9.3519 13.7563 9.93198C14.1081 10.5121 14.3066 11.1721 14.3331 11.85C14.3793 11.8687 14.4267 11.8841 14.4751 11.896C14.8744 12.0031 15.2916 12.0258 15.7002 11.9627C16.1087 11.8995 16.4996 11.7519 16.8479 11.5292C17.1962 11.3064 17.4943 11.0136 17.723 10.6692C17.9518 10.3249 18.1062 9.93659 18.1765 9.5292C18.2468 9.12181 18.2314 8.70424 18.1312 8.30314C18.0311 7.90205 17.8484 7.52623 17.5948 7.1997C17.3413 6.87316 17.0225 6.60306 16.6587 6.40666C16.2949 6.21025 15.8942 6.09185 15.4821 6.059C14.7667 6.01368 14.0586 6.22429 13.4842 6.65317C12.9099 7.08204 12.5068 7.70123 12.3471 8.4ZM11.7981 8.284C11.916 7.75589 12.1165 7.24968 12.3921 6.784C10.9142 6.66261 9.42894 6.66261 7.95109 6.784C8.29703 7.26356 8.52176 7.81973 8.60609 8.405C9.10157 8.16755 9.6405 8.0343 10.1895 8.01349C10.7386 7.99268 11.2861 8.08474 11.7981 8.284ZM10.1721 6.5H10.1871C10.7196 6.49942 11.2437 6.36786 11.7134 6.11691C12.183 5.86597 12.5837 5.50334 12.8801 5.061C13.1275 4.69212 13.2939 4.27493 13.3681 3.837C13.4025 3.64321 13.4202 3.44682 13.4211 3.25C13.4206 2.49729 13.1591 1.76803 12.6812 1.18652C12.2033 0.60501 11.5385 0.207239 10.8001 0.0610008L10.7541 0.0460014H10.7101C10.5324 0.0154525 10.3524 6.23533e-05 10.1721 0C9.31014 0 8.48349 0.342411 7.874 0.951904C7.2645 1.5614 6.92209 2.38805 6.92209 3.25C6.92209 4.11195 7.2645 4.9386 7.874 5.5481C8.48349 6.15759 9.31014 6.5 10.1721 6.5Z" fill="#258086"/>
</svg>
