<svg width="20" height="20" viewBox="0 0 20 20" fill="none" xmlns="http://www.w3.org/2000/svg">
<path d="M17.649 0H1.587C1.37859 0 1.17223 0.0410496 0.979683 0.120804C0.787139 0.200558 0.612187 0.317454 0.464821 0.464821C0.317454 0.612187 0.200558 0.787139 0.120804 0.979683C0.0410496 1.17223 0 1.37859 0 1.587V17.651C0 17.8594 0.0410496 18.0658 0.120804 18.2583C0.200558 18.4509 0.317454 18.6258 0.464821 18.7732C0.612187 18.9205 0.787139 19.0374 0.979683 19.1172C1.17223 19.1969 1.37859 19.238 1.587 19.238H17.651C18.0715 19.2367 18.4744 19.0691 18.7717 18.7717C19.0691 18.4744 19.2367 18.0715 19.238 17.651V1.587C19.2346 1.16681 19.066 0.764823 18.7687 0.46788C18.4714 0.170937 18.0692 0.00287512 17.649 0ZM10.717 16.286C9.80649 16.4442 8.87551 16.4442 7.965 16.286C7.89305 15.8345 7.85561 15.3782 7.853 14.921C7.85513 14.4565 7.89257 13.9928 7.965 13.534C8.87624 13.3845 9.80576 13.3845 10.717 13.534C10.8665 14.4452 10.8665 15.3748 10.717 16.286ZM13.208 8.163C13.0004 8.56768 12.7236 8.93286 12.39 9.242C12.0967 9.52187 11.7659 9.7595 11.407 9.948C11.073 10.13 10.796 10.265 10.589 10.348V12.054C10.1719 12.1242 9.74993 12.161 9.327 12.164C8.93311 12.1637 8.54009 12.1269 8.153 12.054V8.838C8.45725 8.78634 8.75787 8.71519 9.053 8.625C9.3573 8.5351 9.64796 8.40423 9.917 8.236C10.1708 8.08332 10.3895 7.87888 10.559 7.636C10.7344 7.36494 10.8227 7.04669 10.812 6.724C10.8237 6.48787 10.7768 6.25252 10.6754 6.03894C10.574 5.82536 10.4214 5.64021 10.231 5.5C9.77639 5.19842 9.23679 5.05116 8.692 5.08C8.43 5.08 8.2 5.089 7.992 5.104C7.79882 5.11808 7.60735 5.14988 7.42 5.199C7.246 5.239 7.064 5.294 6.881 5.351C6.698 5.408 6.516 5.47 6.309 5.551C6.13581 5.22589 5.99223 4.88586 5.88 4.535C5.76681 4.18284 5.69729 3.81811 5.673 3.449C5.998 3.339 6.3 3.242 6.573 3.163C6.83467 3.07776 7.102 3.01092 7.373 2.963C7.63235 2.91349 7.89452 2.88009 8.158 2.863C8.42 2.848 8.705 2.832 8.998 2.832C10.2188 2.73852 11.4308 3.10086 12.4 3.849C12.7843 4.20327 13.0859 4.63777 13.2834 5.12167C13.481 5.60557 13.5696 6.12701 13.543 6.649C13.5591 7.17368 13.4439 7.69408 13.208 8.163Z" fill="#258086"/>
</svg>
