<svg width="31" height="33" viewBox="0 0 31 33" fill="none" xmlns="http://www.w3.org/2000/svg">
<path d="M25.646 22.583H24.033L23.461 22.032C25.6998 19.4236 26.841 16.0492 26.6449 12.6174C26.4488 9.18552 24.9307 5.9631 22.4094 3.62667C19.888 1.29025 16.5595 0.0215489 13.1227 0.0869416C9.68587 0.152334 6.40803 1.54673 3.97739 3.97738C1.54674 6.40803 0.152342 9.68586 0.0869493 13.1227C0.0215565 16.5595 1.29026 19.888 3.62668 22.4094C5.96311 24.9307 9.18553 26.4488 12.6174 26.6449C16.0492 26.841 19.4236 25.6998 22.032 23.461L22.583 24.033V25.646L29.402 32.91L30.902 27.846L25.646 22.583ZM13.396 22.583C11.5787 22.583 9.8023 22.0441 8.29132 21.0345C6.78034 20.0248 5.60269 18.5898 4.9073 16.9109C4.21191 15.2319 4.03002 13.3845 4.38462 11.6021C4.73922 9.81981 5.61439 8.18267 6.89946 6.89774C8.18452 5.61282 9.82176 4.73782 11.6041 4.38342C13.3865 4.02901 15.2339 4.2111 16.9128 4.90668C18.5917 5.60225 20.0266 6.78005 21.036 8.29114C22.0455 9.80223 22.5842 11.5787 22.584 13.396C22.5856 14.603 22.349 15.7984 21.8878 16.9138C21.4266 18.0292 20.7499 19.0426 19.8964 19.8961C19.0428 20.7495 18.0293 21.4261 16.9139 21.8872C15.7984 22.3482 14.603 22.5847 13.396 22.583Z" fill="#8388A5"/>
</svg>
