<svg width="27" height="28" viewBox="0 0 27 28" fill="none" xmlns="http://www.w3.org/2000/svg">
<path d="M25.115 26.998L1.99097 27.02C1.60806 27.0192 1.24102 26.8669 0.970076 26.5963C0.699127 26.3257 0.546293 25.9589 0.544972 25.576L0.521973 2.45301C0.522499 2.06992 0.674708 1.70263 0.945311 1.43147C1.21591 1.1603 1.58289 1.00733 1.96597 1.00601L25.09 0.984009C25.4729 0.984799 25.8399 1.13712 26.1109 1.4077C26.3818 1.67827 26.5347 2.0451 26.536 2.42801L26.558 25.552C26.5572 25.9348 26.405 26.3016 26.1346 26.5726C25.8643 26.8435 25.4977 26.9964 25.115 26.998Z" fill="url(#paint0_linear_2_4079)"/>
<path fill-rule="evenodd" clip-rule="evenodd" d="M17.3069 11.549C18.4866 12.3922 19.9009 12.8444 21.3509 12.842V9.942C21.0656 9.94208 20.781 9.91225 20.5019 9.853V12.136C19.0519 12.138 17.6377 11.6859 16.4579 10.843V16.762C16.4569 17.7335 16.1921 18.6865 15.6918 19.5193C15.1916 20.3521 14.4746 21.0335 13.6174 21.4908C12.7602 21.948 11.7949 22.1639 10.8246 22.1156C9.85433 22.0672 8.91536 21.7563 8.10791 21.216C8.85328 21.9779 9.80871 22.5005 10.8523 22.7172C11.8959 22.9338 12.9804 22.8347 13.9675 22.4325C14.9546 22.0303 15.7994 21.3432 16.3944 20.4588C16.9893 19.5744 17.3074 18.5329 17.3079 17.467L17.3069 11.549ZM18.3549 8.623C17.7558 7.97005 17.3876 7.13847 17.3069 6.256V5.883H16.5069C16.6063 6.44414 16.8226 6.97809 17.1419 7.45015C17.4611 7.92221 17.8761 8.32182 18.3599 8.623H18.3549ZM9.98091 18.944C9.66554 18.5286 9.49069 18.0236 9.48172 17.5022C9.47276 16.9808 9.63014 16.47 9.93105 16.0441C10.2319 15.6181 10.6607 15.2991 11.1552 15.1333C11.6496 14.9675 12.184 14.9636 12.6809 15.122V12.156C12.3985 12.1185 12.1137 12.1031 11.8289 12.11V14.41C11.2403 14.2203 10.6018 14.2599 10.0412 14.5209C9.48056 14.7819 9.0392 15.2451 8.80546 15.8176C8.57173 16.3901 8.56285 17.0298 8.78063 17.6086C8.9984 18.1874 9.42674 18.6625 9.97991 18.939L9.98091 18.944Z" fill="#EC407A"/>
<path fill-rule="evenodd" clip-rule="evenodd" d="M16.4579 10.842C17.6381 11.6857 19.0532 12.1379 20.5039 12.135V9.85202C19.6778 9.67515 18.9273 9.24522 18.3569 8.62202C17.8732 8.32083 17.4583 7.92121 17.1393 7.44914C16.8202 6.97707 16.604 6.44312 16.5049 5.88202H14.3889V17.467C14.3868 17.9798 14.2242 18.479 13.9238 18.8946C13.6235 19.3102 13.2005 19.6213 12.7143 19.7841C12.228 19.9469 11.703 19.9534 11.2129 19.8025C10.7229 19.6517 10.2924 19.3511 9.98189 18.943C9.42531 18.6684 8.99346 18.193 8.77334 17.6127C8.55322 17.0324 8.56116 16.3902 8.79558 15.8155C9.02999 15.2408 9.47346 14.7763 10.0367 14.5155C10.5999 14.2547 11.241 14.217 11.8309 14.41V12.11C10.7853 12.1311 9.76879 12.4575 8.90641 13.049C8.04404 13.6406 7.3735 14.4714 6.97737 15.4392C6.58125 16.4071 6.47684 17.4696 6.677 18.496C6.87716 19.5225 7.37315 20.4679 8.10389 21.216C8.91134 21.7563 9.85031 22.0672 10.8206 22.1156C11.7909 22.164 12.7562 21.948 13.6134 21.4908C14.4706 21.0335 15.1875 20.3522 15.6878 19.5194C16.1881 18.6865 16.4528 17.7335 16.4539 16.762V10.842H16.4579Z" fill="white"/>
<path fill-rule="evenodd" clip-rule="evenodd" d="M20.5019 9.85199V9.23399C19.7428 9.23541 18.9987 9.02296 18.3549 8.62099C18.9247 9.24508 19.6754 9.67548 20.5019 9.85199ZM16.5019 5.88099C16.4819 5.76999 16.4679 5.65999 16.4579 5.54799V5.17999H13.5389V16.761C13.537 17.179 13.4283 17.5896 13.2233 17.9538C13.0183 18.3181 12.7237 18.624 12.3673 18.8425C12.011 19.0611 11.6048 19.185 11.1871 19.2026C10.7695 19.2201 10.3543 19.1308 9.98087 18.943C10.2913 19.3511 10.7219 19.6517 11.2119 19.8025C11.702 19.9534 12.227 19.9469 12.7132 19.7841C13.1995 19.6212 13.6225 19.3102 13.9228 18.8946C14.2232 18.479 14.3858 17.9798 14.3879 17.467V5.87999L16.5019 5.88099ZM11.8289 12.107V11.45C11.5849 11.4167 11.339 11.4 11.0929 11.4C9.9428 11.3992 8.82296 11.7682 7.8987 12.4526C6.97445 13.137 6.29479 14.1005 5.96008 15.2008C5.62538 16.3011 5.65338 17.4798 6.03995 18.563C6.42652 19.6461 7.15116 20.5762 8.10687 21.216C7.3754 20.4684 6.87861 19.5231 6.67771 18.4966C6.4768 17.4701 6.58056 16.4073 6.97618 15.4391C7.37181 14.4708 8.04204 13.6395 8.90428 13.0474C9.76653 12.4554 10.7831 12.1285 11.8289 12.107Z" fill="#81D4FA"/>
<defs>
<linearGradient id="paint0_linear_2_4079" x1="13.3056" y1="1.24437" x2="13.3056" y2="27.2023" gradientUnits="userSpaceOnUse">
<stop stop-color="#4C4C4C"/>
<stop offset="1" stop-color="#343434"/>
</linearGradient>
</defs>
</svg>
