<svg width="29" height="26" viewBox="0 0 29 26" fill="none" xmlns="http://www.w3.org/2000/svg">
<path d="M17.228 21.31C17.2016 20.4248 16.8918 19.5715 16.3442 18.8756C15.7966 18.1796 15.0401 17.6778 14.186 17.444C14.104 17.421 14.025 17.402 13.943 17.382C13.228 17.8305 12.4005 18.0669 11.5565 18.0639C10.7126 18.0609 9.88674 17.8186 9.175 17.365C8.28687 17.5702 7.49014 18.0601 6.90614 18.76C6.32214 19.4599 5.98287 20.3314 5.94 21.242C5.917 22.193 5.898 23.142 5.895 24.092C5.895 24.978 5.83 25.003 6.283 25.122C6.283 25.122 12.101 26.48 16.864 25.136C16.9825 25.1071 17.0867 25.0368 17.1578 24.9377C17.229 24.8387 17.2624 24.7175 17.252 24.596C17.231 23.5 17.27 22.402 17.228 21.31ZM7.236 17.419C7.61514 17.1672 8.01687 16.9513 8.436 16.774C7.63267 15.9866 7.15805 14.9237 7.108 13.8C7.08069 13.7985 7.05331 13.7985 7.026 13.8C6.16 13.8 5.291 13.78 4.426 13.808C3.4779 13.8097 2.55434 14.1095 1.786 14.665C1.452 14.932 0.045 16.26 0 19.807V21.553C1.45297 22.0111 2.94488 22.3352 4.457 22.521C4.957 22.583 5.145 22.487 5.128 21.932C5.06597 21.0623 5.22704 20.1913 5.59595 19.4013C5.96485 18.6113 6.52937 17.9297 7.236 17.419ZM20.652 14.419C19.206 13.536 17.596 13.833 16.034 13.811C15.9802 14.9304 15.5064 15.9884 14.707 16.774C15.415 17.0485 16.0572 17.4689 16.592 18.008C17.1017 18.5374 17.4919 19.1701 17.736 19.8633C17.9801 20.5565 18.0725 21.294 18.007 22.026C17.982 22.411 18.072 22.581 18.507 22.55C19.8032 22.4616 21.0795 22.1851 22.296 21.729C22.4352 21.6967 22.5575 21.6141 22.6395 21.4971C22.7215 21.38 22.7573 21.2368 22.74 21.095C22.709 19.983 22.748 18.865 22.695 17.753C22.6692 17.0691 22.4676 16.4033 22.1098 15.8199C21.752 15.2365 21.2499 14.755 20.652 14.422V14.419ZM11.6 17.031C12.4752 17.0181 13.3104 16.6622 13.9259 16.0398C14.5414 15.4174 14.8879 14.5783 14.891 13.703C14.8954 13.2694 14.8139 12.8393 14.6513 12.4374C14.4886 12.0355 14.2481 11.6698 13.9435 11.3613C13.6389 11.0527 13.2762 10.8076 12.8764 10.6398C12.4766 10.4721 12.0476 10.3851 11.614 10.384C11.1754 10.3792 10.7402 10.461 10.3333 10.6245C9.92636 10.7881 9.55565 11.0303 9.24238 11.3373C8.92911 11.6442 8.67942 12.0099 8.5076 12.4134C8.33577 12.817 8.24518 13.2504 8.241 13.689C8.25095 14.5752 8.60857 15.422 9.23684 16.0471C9.86511 16.6722 10.7138 17.0255 11.6 17.031ZM5.844 13.601C5.97804 13.5961 6.11165 13.5828 6.244 13.561C6.54743 13.5124 6.84197 13.419 7.118 13.284C7.16444 12.6101 7.36327 11.9556 7.6995 11.3697C8.03573 10.7839 8.50058 10.282 9.059 9.90198C9.05102 9.81524 9.03766 9.72907 9.019 9.64398C8.85726 8.82801 8.39615 8.10205 7.72632 7.6088C7.05648 7.11556 6.22638 6.8907 5.39917 6.97844C4.57196 7.06617 3.80749 7.46014 3.25602 8.08292C2.70456 8.7057 2.40599 9.51223 2.419 10.344C2.45356 11.2255 2.83027 12.0588 3.46917 12.6671C4.10808 13.2754 4.95888 13.6107 5.841 13.602L5.844 13.601ZM26.516 11.32C25.7486 10.7622 24.8246 10.4612 23.876 10.46C23.01 10.432 22.141 10.454 21.276 10.452C21.2487 10.4505 21.2213 10.4505 21.194 10.452C21.145 11.5752 20.6719 12.638 19.87 13.426C20.288 13.6056 20.6896 13.8214 21.07 14.071C21.7766 14.5817 22.3412 15.2643 22.7101 16.0543C23.079 16.8443 23.24 17.7153 23.178 18.585C23.161 19.14 23.351 19.239 23.849 19.174C25.3614 18.9895 26.8534 18.6655 28.306 18.206V16.465C28.253 12.922 26.846 11.587 26.513 11.321L26.516 11.32ZM21.184 9.93998C21.4595 10.0763 21.7543 10.1697 22.058 10.217C22.1902 10.2402 22.3239 10.2536 22.458 10.257C23.0947 10.2761 23.7235 10.1125 24.2701 9.78539C24.8167 9.45832 25.2582 8.98151 25.5423 8.41138C25.8263 7.84126 25.9411 7.20169 25.8731 6.56836C25.8051 5.93503 25.557 5.33444 25.1583 4.83767C24.7596 4.3409 24.227 3.96874 23.6234 3.76523C23.0198 3.56172 22.3705 3.53537 21.7524 3.68932C21.1343 3.84326 20.5733 4.17105 20.1356 4.63388C19.698 5.09672 19.4021 5.67524 19.283 6.30098C19.2646 6.38611 19.2512 6.47226 19.243 6.55898C19.8012 6.93929 20.2658 7.44121 20.602 8.027C20.9382 8.61279 21.1372 9.26619 21.184 9.93998ZM13.815 9.55998C13.8018 9.60919 13.7925 9.65934 13.787 9.70998C14.446 10.0867 14.9982 10.6249 15.3918 11.274C15.7855 11.923 16.0075 12.6615 16.037 13.42C16.0884 13.4407 16.1412 13.4578 16.195 13.471C16.6421 13.5916 17.1094 13.6176 17.567 13.5473C18.0247 13.4771 18.4627 13.312 18.853 13.0628C19.2432 12.8136 19.5772 12.4858 19.8335 12.1001C20.0899 11.7145 20.2629 11.2796 20.3416 10.8233C20.4202 10.367 20.4028 9.8993 20.2904 9.4501C20.178 9.00091 19.9731 8.58011 19.6888 8.21461C19.4046 7.84912 19.0471 7.54697 18.6394 7.32749C18.2317 7.10801 17.7826 6.97602 17.321 6.93998C16.5208 6.88972 15.7288 7.12565 15.0865 7.60562C14.4442 8.08558 13.9935 8.77831 13.815 9.55998ZM13.201 9.42998C13.3328 8.83815 13.5573 8.27084 13.866 7.74898C12.2125 7.61316 10.5505 7.61316 8.897 7.74898C9.28414 8.28564 9.53563 8.90802 9.63 9.56298C10.1843 9.29731 10.7872 9.14816 11.4014 9.12477C12.0156 9.10137 12.6281 9.20423 13.201 9.42698V9.42998ZM11.381 7.42998H11.4C11.9959 7.42947 12.5825 7.28234 13.1082 7.00157C13.6338 6.7208 14.0822 6.31501 14.414 5.81998C14.6909 5.40711 14.877 4.94015 14.96 4.44998C14.9984 4.23307 15.0182 4.01326 15.019 3.79298C15.0186 2.95132 14.7265 2.13583 14.1924 1.48529C13.6584 0.834754 12.9154 0.38938 12.09 0.224979L12.039 0.207981H11.985C11.7868 0.174071 11.5861 0.157012 11.385 0.156982C10.4205 0.156982 9.49558 0.540112 8.81361 1.22209C8.13163 1.90406 7.7485 2.82902 7.7485 3.79348C7.7485 4.75794 8.13163 5.6829 8.81361 6.36488C9.49558 7.04685 10.4205 7.42998 11.385 7.42998H11.381Z" fill="#CDD0E2"/>
</svg>
