<svg width="22" height="17" viewBox="0 0 22 17" fill="none" xmlns="http://www.w3.org/2000/svg">
<path d="M12.2511 10.715C11.3031 10.333 10.3791 9.90304 9.4571 9.46304C9.38128 9.43838 9.31566 9.38951 9.27032 9.32393C9.22497 9.25835 9.20241 9.1797 9.2061 9.10005C9.19868 8.85618 9.17328 8.61318 9.1301 8.37305C9.11443 8.30326 9.11776 8.23054 9.13975 8.16248C9.16173 8.09441 9.20157 8.03349 9.2551 7.98605C9.7398 7.54669 10.0692 6.96222 10.1941 6.32005C10.2111 6.22005 10.2641 6.19005 10.3601 6.18605C10.4551 6.18749 10.5472 6.15308 10.618 6.08971C10.6887 6.02633 10.7331 5.93862 10.7421 5.84404C10.8041 5.49304 10.8611 5.14404 10.9181 4.79004C10.9314 4.74452 10.9353 4.69675 10.9294 4.64969C10.9235 4.60262 10.9081 4.55726 10.884 4.5164C10.8599 4.47555 10.8277 4.44007 10.7894 4.41214C10.751 4.38422 10.7074 4.36444 10.6611 4.35405C10.5191 4.31405 10.5441 4.24804 10.5611 4.14404C10.6517 3.67205 10.6486 3.18687 10.5521 2.71605C10.411 2.16248 10.1272 1.65557 9.72909 1.24587C9.33097 0.836163 8.8324 0.537974 8.2831 0.381043C8.07908 0.309889 7.86231 0.282733 7.64704 0.301347C7.43177 0.319961 7.22288 0.383926 7.0341 0.489045C6.81225 0.578332 6.57209 0.612647 6.3341 0.589051C5.83467 0.659339 5.36843 0.879876 4.99728 1.22138C4.62613 1.56288 4.36763 2.00919 4.2561 2.50105C4.09664 3.04826 4.0655 3.62486 4.1651 4.18605C4.1861 4.28605 4.1711 4.32205 4.0781 4.36205C3.98958 4.39552 3.91699 4.46123 3.87489 4.54599C3.83279 4.63075 3.82429 4.72829 3.8511 4.81905C3.9131 5.16305 3.9511 5.51005 4.0151 5.85205C4.02544 5.94238 4.06808 6.02592 4.13515 6.0873C4.20222 6.14867 4.28922 6.18375 4.3801 6.18605C4.4234 6.18203 4.46658 6.19486 4.50067 6.22186C4.53475 6.24887 4.55711 6.28797 4.5631 6.33104C4.7346 6.99507 5.07975 7.6015 5.5631 8.08804C5.59066 8.11279 5.61153 8.1441 5.62377 8.17906C5.636 8.21403 5.63922 8.25151 5.6331 8.28804C5.5991 8.58804 5.5691 8.88305 5.5441 9.18305C5.54367 9.24294 5.52496 9.30127 5.49047 9.35024C5.45598 9.3992 5.40735 9.43647 5.3511 9.45705C4.5161 9.85705 3.6831 10.2521 2.8221 10.5851C2.22985 10.79 1.67765 11.0962 1.1901 11.4901C0.950782 11.6809 0.759153 11.9248 0.630371 12.2025C0.501589 12.4802 0.439188 12.7841 0.448103 13.09C0.461103 13.717 0.448103 14.3421 0.448103 14.9661C0.443635 15.1665 0.497487 15.3639 0.603114 15.5344C0.708742 15.7048 0.861597 15.8409 1.0431 15.926C1.26295 16.0335 1.50682 16.0824 1.7511 16.068H7.3781C8.7421 16.068 10.1061 16.074 11.4701 16.068C12.0954 16.0937 12.7217 16.0854 13.3461 16.043C13.6119 16.0162 13.8581 15.8911 14.0366 15.6923C14.2151 15.4934 14.313 15.2352 14.3111 14.968C14.3201 14.326 14.3111 13.685 14.3111 13.043C14.3144 12.7494 14.2508 12.4589 14.1252 12.1935C13.9996 11.9281 13.8152 11.6947 13.5861 11.511C13.1874 11.1748 12.7365 10.9059 12.2511 10.715ZM21.6831 13.084C21.685 12.8711 21.6286 12.6618 21.52 12.4787C21.4114 12.2955 21.2548 12.1456 21.0671 12.045C20.7674 11.8828 20.4462 11.764 20.1131 11.692C19.3231 11.492 18.5261 11.303 17.7441 11.065C17.6276 11.0412 17.5237 10.976 17.4515 10.8815C17.3793 10.7871 17.3436 10.6697 17.3511 10.551C17.3544 10.4699 17.3481 10.3887 17.3321 10.3091C17.2961 10.1601 17.3601 10.133 17.4931 10.124C18.303 10.0667 19.0946 9.85628 19.8261 9.50404C20.1471 9.35504 20.1551 9.34704 19.9261 9.07704C19.3683 8.45514 19.0346 7.66452 18.9781 6.83104C18.9501 6.33104 18.9671 5.82605 18.9551 5.32205C18.9545 4.8742 18.8519 4.43236 18.6551 4.03005C18.5455 3.78345 18.369 3.57252 18.1456 3.4212C17.9221 3.26989 17.6608 3.18427 17.3911 3.17404C17.2041 3.16304 17.0601 3.16805 16.9721 2.95705C16.9283 2.88289 16.8687 2.81933 16.7975 2.77092C16.7262 2.72251 16.6452 2.69045 16.5601 2.67705C16.2448 2.59706 15.9168 2.58041 15.5951 2.62805C15.1172 2.64352 14.6538 2.79567 14.2598 3.0665C13.8658 3.33732 13.5577 3.71546 13.3721 4.15605C13.152 4.68045 13.0297 5.24066 13.0111 5.80905C13.0065 6.32052 12.9731 6.83133 12.9111 7.33905C12.8658 7.87468 12.6795 8.38874 12.3711 8.82904C12.198 9.02603 12.0019 9.20162 11.7871 9.35205C11.8921 9.44959 12.0128 9.52869 12.1441 9.58605C12.8739 9.94685 13.676 10.1373 14.4901 10.1431C14.8191 10.1491 14.8191 10.151 14.7831 10.468C14.7771 10.523 14.7721 10.581 14.7701 10.638C14.7714 10.7244 14.7436 10.8086 14.6912 10.8772C14.6388 10.9458 14.5648 10.9947 14.4811 11.0161C14.3111 11.0671 14.2811 11.116 14.4151 11.26C14.8465 11.7228 15.0804 12.3355 15.0671 12.968C15.0671 13.512 15.0591 14.0561 15.0671 14.6001C15.1233 15.102 15.0023 15.6078 14.7251 16.03C14.8441 16.038 14.9081 16.045 14.9711 16.045C16.4184 16.045 17.8641 16.045 19.3081 16.045C19.8261 16.045 20.3471 16.056 20.8661 16.026C21.0847 16.0172 21.2913 15.9239 21.4424 15.7657C21.5935 15.6075 21.6773 15.3968 21.6761 15.178C21.6851 14.478 21.6851 13.7781 21.6761 13.0851L21.6831 13.084Z" fill="#258086"/>
</svg>
