<svg width="20" height="18" viewBox="0 0 20 18" fill="none" xmlns="http://www.w3.org/2000/svg">
<path d="M16.454 14.77C14.4693 13.4626 12.1525 12.7492 9.77617 12.7138C7.39982 12.6784 5.06277 13.3224 3.04 14.57C1.66426 15.2959 0.588009 16.483 0 17.923H19.155C18.651 16.5886 17.6953 15.4729 16.454 14.77ZM9.57 3.89893e-05C10.6867 -0.00411335 11.7794 0.323487 12.7096 0.941289C13.6398 1.55909 14.3656 2.43926 14.7949 3.47014C15.2241 4.50102 15.3375 5.63616 15.1207 6.73158C14.9038 7.82701 14.3665 8.83335 13.5769 9.62296C12.7873 10.4126 11.781 10.9499 10.6855 11.1667C9.59012 11.3835 8.45498 11.2701 7.4241 10.8409C6.39322 10.4116 5.51305 9.68588 4.89525 8.75567C4.27745 7.82545 3.94985 6.73271 3.954 5.61604C3.95453 4.12675 4.54638 2.6986 5.59947 1.64551C6.65256 0.592423 8.08071 0.000569081 9.57 3.89893e-05Z" fill="#8A939B"/>
</svg>
