<svg width="26" height="25" viewBox="0 0 26 25" fill="none" xmlns="http://www.w3.org/2000/svg">
<path d="M19.496 11.13C19.348 10.918 19.209 10.707 19.051 10.509C18.5443 9.9166 17.9905 9.36613 17.395 8.86304C16.712 8.24604 16.019 7.63704 15.366 6.98904C14.6702 6.33444 14.1364 5.52677 13.807 4.63004C13.5273 3.89587 13.4743 3.09464 13.655 2.33004C13.8197 1.71002 14.1709 1.1556 14.6612 0.741869C15.1515 0.328142 15.7571 0.0751101 16.396 0.0170496C17.0349 -0.0410109 17.6761 0.0987052 18.233 0.417272C18.7898 0.73584 19.2353 1.21786 19.509 1.79804L19.532 1.84604C19.545 1.87204 19.566 1.88004 19.58 1.86304C19.5885 1.85326 19.5959 1.84252 19.602 1.83104C19.8041 1.37754 20.1136 0.980042 20.5037 0.672884C20.8937 0.365726 21.3527 0.158136 21.841 0.0680407C22.2996 -0.0342085 22.7759 -0.0266306 23.231 0.0901507C23.6862 0.206932 24.1073 0.429612 24.46 0.740042C24.8622 1.07165 25.174 1.49961 25.3663 1.9841C25.5586 2.4686 25.6253 2.99387 25.56 3.51104C25.4527 4.52546 25.0469 5.48526 24.394 6.26904C23.78 7.00924 23.1013 7.69328 22.366 8.31304C21.7127 8.89904 21.069 9.49438 20.435 10.099C20.1119 10.4128 19.8366 10.7723 19.618 11.166C19.6113 11.1786 19.6036 11.1907 19.595 11.202C19.583 11.222 19.537 11.188 19.496 11.13Z" fill="#258086"/>
<path d="M18.9591 13.7131C18.919 13.6211 18.8969 13.5223 18.8941 13.4221C18.8238 12.5348 18.5455 11.6765 18.0819 10.9168C17.6182 10.1571 16.9821 9.51723 16.2251 9.04907C16.0989 8.95806 15.9961 8.83846 15.9251 8.70007C15.4179 7.80977 14.738 7.02982 13.9251 6.40607C13.4035 5.90577 12.7129 5.62001 11.9903 5.60556C11.2678 5.59111 10.5662 5.84902 10.0251 6.32807C9.94106 6.41057 9.82943 6.45899 9.71178 6.46398C9.59412 6.46896 9.4788 6.43016 9.38809 6.35507C8.73677 5.91909 7.95181 5.72854 7.1731 5.81736C6.39438 5.90619 5.6725 6.26862 5.13609 6.84007C4.49001 7.41659 3.93652 8.08913 3.49509 8.83407C3.44219 8.93198 3.36146 9.01202 3.26309 9.06407C2.12238 9.71472 1.22817 10.7235 0.71909 11.9341C0.419144 12.4918 0.313586 13.1336 0.41909 13.7581C0.437465 13.8685 0.422856 13.9819 0.37709 14.0841C0.0967535 14.8426 -0.02509 15.6506 0.0190888 16.4581C0.0190888 16.6931 0.00108875 16.9321 0.0190888 17.1641C0.0421557 17.953 0.281912 18.7203 0.71209 19.3821C0.873744 19.6195 0.983467 19.8883 1.03409 20.1711C1.16364 20.8396 1.43016 21.4741 1.81686 22.0346C2.20357 22.5952 2.7021 23.0696 3.28109 23.4281C3.587 23.6095 3.88124 23.8099 4.16209 24.0281C4.59029 24.4126 5.11274 24.6768 5.67625 24.7938C6.23976 24.9108 6.8242 24.8764 7.37009 24.6941C7.48673 24.6583 7.61144 24.6583 7.72809 24.6941C8.02003 24.7781 8.32568 24.8037 8.62752 24.7693C8.92936 24.735 9.22147 24.6415 9.48709 24.4941C9.57276 24.4361 9.67503 24.4078 9.77831 24.4134C9.88158 24.419 9.98018 24.4582 10.0591 24.5251C10.3411 24.7412 10.6723 24.8841 11.0231 24.941C11.3738 24.9979 11.7332 24.967 12.0691 24.8511C12.178 24.8209 12.2931 24.8209 12.4021 24.8511C13.036 24.9976 13.7004 24.9333 14.2944 24.6678C14.8884 24.4023 15.3795 23.9501 15.6931 23.3801C15.7884 23.2191 15.927 23.0882 16.0931 23.0021C17.0845 22.5009 17.8804 21.6834 18.3551 20.6791C18.675 20.0088 18.9578 19.3214 19.2021 18.6201C19.7625 17.0151 19.6754 15.2548 18.9591 13.7131ZM9.38909 9.05007C9.3447 9.58771 9.34169 10.128 9.38009 10.6661C9.38909 10.9141 9.32909 11.0351 9.05809 11.1021C8.13453 11.3269 7.3097 11.8473 6.70909 12.5841C6.43209 12.9191 6.42309 13.1971 6.67809 13.4071C6.93309 13.6171 7.18809 13.5501 7.45609 13.2351C7.85267 12.7574 8.36641 12.3908 8.94709 12.1711C9.37609 12.0121 9.37809 12.0121 9.37809 12.4501C9.37809 13.2701 9.37809 14.0891 9.37809 14.9091C9.37809 15.7501 9.36709 16.5921 9.38509 17.4351C9.39209 17.7501 9.30009 17.7461 9.04309 17.6501C8.84455 17.6102 8.65589 17.5313 8.48809 17.4179C8.32029 17.3046 8.17668 17.159 8.0656 16.9897C7.95451 16.8204 7.87817 16.6307 7.841 16.4316C7.80384 16.2325 7.80659 16.0281 7.84909 15.8301C7.87095 15.6178 7.8783 15.4043 7.87109 15.1911C7.882 15.1246 7.8788 15.0566 7.86169 14.9914C7.84458 14.9263 7.81394 14.8654 7.77178 14.8129C7.72962 14.7604 7.67688 14.7173 7.61697 14.6865C7.55707 14.6557 7.49135 14.6378 7.42409 14.6341C7.35645 14.6297 7.28865 14.6392 7.22478 14.6619C7.16091 14.6845 7.10232 14.7199 7.05256 14.766C7.0028 14.812 6.96292 14.8676 6.93533 14.9295C6.90775 14.9914 6.89303 15.0583 6.89209 15.1261C6.82614 15.6966 6.83657 16.2733 6.92309 16.8411C6.94437 16.9155 6.9388 16.9951 6.90736 17.0658C6.87591 17.1365 6.8206 17.194 6.75109 17.2281C6.35861 17.4895 5.99045 17.7857 5.65109 18.1131C5.35109 18.4131 5.32209 18.6791 5.54109 18.9071C5.76009 19.1351 6.06009 19.1071 6.35909 18.8131C6.66501 18.5329 6.98831 18.2724 7.32709 18.0331C7.37563 17.9877 7.43962 17.9624 7.50609 17.9624C7.57256 17.9624 7.63655 17.9877 7.68509 18.0331C8.1311 18.3354 8.61232 18.5822 9.11809 18.7681C9.19903 18.7856 9.2706 18.8325 9.31898 18.8998C9.36737 18.967 9.38914 19.0497 9.38009 19.1321C9.37109 20.2101 9.38009 21.2871 9.37309 22.3651C9.30716 22.6179 9.15421 22.8394 8.94115 22.9907C8.72808 23.1419 8.46853 23.2132 8.20809 23.1921C8.15921 23.1793 8.11671 23.149 8.08868 23.107C8.06066 23.065 8.04906 23.0141 8.05609 22.9641C8.06154 22.4139 7.984 21.8661 7.82609 21.3391C7.81076 21.2913 7.80958 21.2401 7.82272 21.1916C7.83585 21.1432 7.86272 21.0996 7.90009 21.0661C8.03009 20.9101 8.16609 20.7601 8.28009 20.5941C8.32054 20.5461 8.35058 20.4902 8.3683 20.43C8.38603 20.3699 8.39105 20.3066 8.38306 20.2444C8.37506 20.1822 8.35423 20.1223 8.32188 20.0685C8.28952 20.0147 8.24635 19.9683 8.19509 19.9321C8.10176 19.8477 7.97888 19.8036 7.85321 19.8094C7.72754 19.8152 7.60925 19.8705 7.52409 19.9631C7.51509 19.9721 7.50409 19.9761 7.49909 19.9881C7.25809 20.4531 6.89909 20.4821 6.44209 20.3281C6.37989 20.3088 6.31429 20.303 6.24967 20.3111C6.18506 20.3192 6.12292 20.3411 6.06743 20.3751C6.01194 20.4092 5.96438 20.4548 5.92793 20.5088C5.89148 20.5627 5.86698 20.6239 5.85609 20.6881C5.83688 20.7529 5.83187 20.8212 5.8414 20.8881C5.85093 20.9551 5.87476 21.0192 5.91129 21.0762C5.94782 21.1331 5.99619 21.1815 6.0531 21.2181C6.11001 21.2546 6.17413 21.2785 6.24109 21.2881C6.86709 21.4711 6.95409 21.5791 7.01009 22.2361C7.02109 22.3701 7.03009 22.5041 7.04409 22.6361C7.10009 23.1281 7.01709 23.2151 6.51409 23.2571C6.01543 23.2777 5.52719 23.1103 5.14609 22.7881C4.77628 22.5076 4.39209 22.2465 3.99509 22.0061C3.61293 21.7569 3.28749 21.4302 3.03991 21.047C2.79233 20.6638 2.62817 20.2328 2.55809 19.7821C2.52009 19.6141 2.63009 19.5671 2.75809 19.5231C3.11764 19.4036 3.46171 19.2418 3.78309 19.0411C3.97971 18.9285 4.13283 18.7532 4.21787 18.5432C4.30292 18.3332 4.31497 18.1007 4.25209 17.8831C4.08462 17.1837 3.80789 16.5152 3.43209 15.9021C3.40457 15.8364 3.36333 15.7774 3.31114 15.7289C3.25896 15.6805 3.19702 15.6437 3.12949 15.6211C3.06195 15.5986 2.99037 15.5907 2.91954 15.598C2.84871 15.6053 2.78025 15.6277 2.71877 15.6636C2.65728 15.6995 2.60418 15.7482 2.563 15.8063C2.52183 15.8644 2.49354 15.9306 2.48003 16.0005C2.46653 16.0704 2.46811 16.1424 2.48467 16.2117C2.50124 16.2809 2.5324 16.3458 2.57609 16.4021C2.84091 16.8819 3.06374 17.3838 3.24209 17.9021C3.26252 17.9388 3.27426 17.9798 3.27639 18.0218C3.27852 18.0638 3.27098 18.1057 3.25437 18.1443C3.23776 18.183 3.21251 18.2173 3.18056 18.2446C3.14862 18.272 3.11082 18.2916 3.07009 18.3021L2.70309 18.4701C2.11309 18.7141 1.98109 18.6781 1.79809 18.0701C1.45775 16.9573 1.47033 15.7664 1.83409 14.6611C1.87424 14.523 1.95755 14.4014 2.07182 14.3141C2.1861 14.2269 2.32532 14.1785 2.46909 14.1761C2.76057 14.1135 3.0641 14.1397 3.34055 14.2513C3.617 14.3629 3.85369 14.5547 4.02009 14.8021C4.30418 15.1497 4.55842 15.5207 4.78009 15.9111C4.80543 15.9765 4.8437 16.0361 4.89261 16.0864C4.94152 16.1367 5.00006 16.1767 5.06475 16.2038C5.12944 16.231 5.19895 16.2448 5.2691 16.2445C5.33926 16.2442 5.40864 16.2298 5.47309 16.2021C5.53798 16.1688 5.59499 16.122 5.6403 16.0649C5.68562 16.0078 5.71818 15.9416 5.7358 15.8708C5.75342 15.8001 5.75569 15.7264 5.74245 15.6546C5.72922 15.5829 5.7008 15.5149 5.65909 15.4551C5.34115 14.8475 4.93358 14.2913 4.45009 13.8051C4.20165 13.5434 3.89083 13.3492 3.54678 13.2406C3.20272 13.132 2.83672 13.1125 2.48309 13.1841C1.93109 13.2691 1.89509 13.2261 2.09909 12.7171C2.40256 11.9762 2.88043 11.3196 3.49209 10.8031C3.67809 10.6401 3.79209 10.6031 3.89209 10.8861C3.99485 11.1724 4.15131 11.4364 4.35309 11.6641C4.47959 11.8325 4.66357 11.9486 4.87006 11.9903C5.07656 12.032 5.29117 11.9963 5.47309 11.8901C5.79078 11.7202 6.07912 11.5004 6.32709 11.2391C6.81709 10.7611 7.30209 10.2751 7.78509 9.79007C7.84353 9.74939 7.8922 9.69623 7.9276 9.63445C7.963 9.57267 7.98424 9.50379 7.98979 9.4328C7.99534 9.36181 7.98506 9.29048 7.95969 9.22395C7.93432 9.15742 7.89449 9.09734 7.84309 9.04807C7.79478 8.99659 7.73613 8.95593 7.67098 8.92875C7.60583 8.90158 7.53567 8.8885 7.4651 8.89039C7.39454 8.89228 7.32517 8.90909 7.26157 8.93972C7.19796 8.97034 7.14157 9.01409 7.09609 9.06807C6.55309 9.58907 6.03009 10.1301 5.48409 10.6481C5.06809 11.0411 5.06109 11.0171 4.80909 10.5071C4.7336 10.3698 4.69816 10.214 4.70683 10.0576C4.71549 9.90109 4.7679 9.75021 4.85809 9.62207C5.28907 8.92317 5.83313 8.30069 6.46809 7.78007C6.7027 7.576 6.99135 7.44419 7.29922 7.40054C7.60708 7.35689 7.921 7.40326 8.20309 7.53407C8.35715 7.60109 8.50708 7.67723 8.65209 7.76207C8.90481 7.85859 9.1163 8.03963 9.25066 8.27443C9.38501 8.50922 9.43392 8.78329 9.38909 9.05007ZM17.6891 18.1781C17.5331 18.6651 17.4771 18.6721 17.0181 18.4891C16.3051 18.2031 16.2911 18.1831 16.5891 17.4761C16.7371 17.1251 16.9131 16.7871 17.0791 16.4431C17.1209 16.3829 17.1498 16.3146 17.1638 16.2427C17.1778 16.1707 17.1767 16.0967 17.1605 16.0252C17.1443 15.9537 17.1134 15.8863 17.0698 15.8274C17.0262 15.7685 16.9708 15.7194 16.9071 15.6831C16.8441 15.6503 16.7749 15.6313 16.7041 15.6273C16.6332 15.6233 16.5623 15.6345 16.4961 15.66C16.4299 15.6855 16.3699 15.7249 16.32 15.7754C16.2702 15.8259 16.2317 15.8865 16.2071 15.9531C15.8299 16.5783 15.5595 17.262 15.4071 17.9761C15.3661 18.1577 15.3794 18.3473 15.4454 18.5214C15.5113 18.6954 15.627 18.8463 15.7781 18.9551C16.1058 19.1923 16.4676 19.3784 16.8511 19.5071C17.0031 19.5651 17.0791 19.6231 17.0101 19.7981C16.6681 20.5883 16.0617 21.235 15.2951 21.6271C15.1681 21.6991 15.0891 21.6271 15.0181 21.5271C14.8211 21.2387 14.5762 20.986 14.2941 20.7801C14.2194 20.7321 14.1637 20.6598 14.1364 20.5754C14.109 20.491 14.1118 20.3997 14.1441 20.3171C14.1891 20.0981 14.2381 19.8791 14.2621 19.6551C14.2745 19.5941 14.2737 19.5311 14.2597 19.4704C14.2457 19.4097 14.2188 19.3528 14.1809 19.3034C14.143 19.254 14.0949 19.2133 14.0399 19.1841C13.9849 19.1549 13.9242 19.1378 13.8621 19.1341C13.8013 19.1202 13.7383 19.1186 13.6769 19.1295C13.6155 19.1404 13.5569 19.1635 13.5046 19.1974C13.4523 19.2314 13.4073 19.2755 13.3724 19.3271C13.3374 19.3788 13.3132 19.4369 13.3011 19.4981C13.2291 19.7301 13.2941 20.0571 13.1011 20.1841C12.9331 20.2941 12.6451 20.2181 12.4121 20.2331C12.3007 20.2446 12.1905 20.2663 12.0831 20.2981C12.016 20.3072 11.9515 20.3301 11.8936 20.3652C11.8357 20.4004 11.7856 20.4471 11.7466 20.5025C11.7076 20.5578 11.6804 20.6207 11.6667 20.687C11.653 20.7533 11.6531 20.8218 11.6671 20.8881C11.6757 20.9554 11.699 21.0199 11.7354 21.0772C11.7718 21.1344 11.8204 21.1829 11.8777 21.2192C11.935 21.2555 11.9996 21.2787 12.0669 21.2871C12.1342 21.2956 12.2026 21.2891 12.2671 21.2681C12.6541 21.1792 13.0596 21.2202 13.4211 21.3846C13.7825 21.5491 14.0798 21.8279 14.2671 22.1781C14.3265 22.2449 14.3593 22.3312 14.3593 22.4206C14.3593 22.51 14.3265 22.5963 14.2671 22.6631C14.0871 22.9738 13.7923 23.2016 13.4462 23.2973C13.1001 23.3931 12.7302 23.3492 12.4161 23.1751C12.1281 23.0301 11.9161 22.9941 11.6871 23.2511C11.6173 23.3262 11.5236 23.3748 11.4219 23.3883C11.3202 23.4018 11.2171 23.3794 11.1301 23.3251C10.8852 23.2595 10.6732 23.1057 10.5349 22.8932C10.3966 22.6807 10.3419 22.4245 10.3811 22.1741C10.3811 20.8261 10.3811 19.4741 10.3811 18.1321C10.3811 17.6851 10.4211 17.6511 10.8711 17.7161C11.2861 17.7648 11.6769 17.9368 11.9931 18.2101C12.0397 18.2665 12.0977 18.3126 12.1632 18.3452C12.2287 18.3779 12.3004 18.3964 12.3735 18.3996C12.4467 18.4028 12.5197 18.3906 12.5878 18.3638C12.656 18.337 12.7177 18.2962 12.7691 18.2441C12.9881 18.0031 12.9501 17.7281 12.6441 17.4551C12.1333 16.987 11.4659 16.7269 10.7731 16.7261C10.4561 16.7261 10.4001 16.6031 10.3731 16.3151C10.2861 15.5151 10.3931 14.9151 11.3051 14.6211C11.6831 14.5001 11.9181 14.4211 12.1971 14.7151C12.3201 14.8451 12.4701 14.9501 12.5971 15.0681C12.6406 15.1239 12.6957 15.1696 12.7585 15.2022C12.8214 15.2347 12.8906 15.2532 12.9613 15.2564C13.032 15.2597 13.1025 15.2475 13.1681 15.2209C13.2337 15.1942 13.2927 15.1537 13.3411 15.1021C13.3886 15.0503 13.425 14.9895 13.4483 14.9232C13.4715 14.857 13.481 14.7867 13.4763 14.7166C13.4715 14.6466 13.4525 14.5782 13.4205 14.5157C13.3885 14.4532 13.3441 14.3979 13.2901 14.3531C13.0456 14.1042 12.775 13.8822 12.4831 13.6911C12.4166 13.6524 12.3633 13.5946 12.3301 13.5252C12.297 13.4559 12.2855 13.3781 12.2971 13.3021C12.3161 12.932 12.3161 12.5612 12.2971 12.1911C12.3042 12.1204 12.2955 12.0491 12.2718 11.9822C12.2481 11.9152 12.2099 11.8544 12.1599 11.8039C12.11 11.7535 12.0495 11.7147 11.9828 11.6903C11.9161 11.666 11.8448 11.6567 11.7741 11.6631C11.4631 11.6741 11.3091 11.8691 11.3131 12.2351C11.3131 12.4351 11.3021 12.6421 11.3261 12.8411C11.365 13.0583 11.3215 13.2822 11.2041 13.469C11.0866 13.6558 10.9037 13.792 10.6911 13.8511C10.4541 13.9511 10.3711 13.9361 10.3741 13.6651C10.3811 12.8891 10.3741 12.1161 10.3741 11.3401V11.0021C10.3741 10.1591 10.3811 9.31907 10.3741 8.47607C10.3709 8.37049 10.3894 8.26538 10.4287 8.1673C10.4679 8.06923 10.5269 7.98029 10.6021 7.90607C10.7256 7.70725 10.8938 7.54007 11.0935 7.41792C11.2931 7.29577 11.5186 7.22202 11.7518 7.20259C11.985 7.18315 12.2196 7.21856 12.4367 7.30599C12.6538 7.39341 12.8474 7.53043 13.0021 7.70607C13.6551 8.22293 14.199 8.86434 14.6021 9.59307C14.6273 9.62208 14.6454 9.65649 14.6552 9.69365C14.6649 9.73081 14.6659 9.76971 14.6582 9.80734C14.6505 9.84496 14.6342 9.88029 14.6105 9.91059C14.5869 9.9409 14.5567 9.96536 14.5221 9.98207C14.0391 10.3581 13.8831 10.3821 13.3511 10.0741C12.9863 9.8765 12.6904 9.57228 12.5031 9.20207C12.3401 8.86707 12.0691 8.75507 11.7971 8.89607C11.7334 8.92712 11.6771 8.97134 11.6318 9.02581C11.5865 9.08027 11.5533 9.14374 11.5344 9.212C11.5155 9.28027 11.5113 9.35177 11.5221 9.42177C11.5329 9.49178 11.5585 9.55869 11.5971 9.61807C11.7993 10.0336 12.0914 10.399 12.4521 10.6879C12.8129 10.9767 13.2334 11.1817 13.6831 11.2881C13.9377 11.3538 14.2077 11.3209 14.4391 11.1961C14.6405 11.0971 14.8352 10.9852 15.0221 10.8611C15.6221 10.4501 15.6221 10.4451 16.1351 10.9861C16.6481 11.5097 17.023 12.1527 17.2261 12.8571C17.2931 13.0891 17.2511 13.1881 16.9821 13.1571C16.6171 13.1191 16.2485 13.1744 15.9107 13.3178C15.573 13.4612 15.2772 13.6881 15.0511 13.9771C14.6571 14.4083 14.3169 14.8858 14.0381 15.3991C13.8571 15.7451 13.9201 16.0581 14.1861 16.1901C14.4521 16.3221 14.7431 16.2081 14.9191 15.8681C15.2017 15.3175 15.5819 14.8229 16.0411 14.4081C16.1672 14.2825 16.3241 14.1922 16.496 14.1461C16.6679 14.1001 16.8489 14.0999 17.021 14.1456C17.193 14.1914 17.35 14.2814 17.4763 14.4068C17.6027 14.5321 17.694 14.6884 17.7411 14.8601C18.0574 15.9461 18.0378 17.1024 17.6851 18.1771L17.6891 18.1781Z" fill="#258086"/>
</svg>
